<?xml version="1.0" encoding="UTF-8" standalone="no"?>
<!-- Created with Inkscape (http://www.inkscape.org/) -->

<svg
   width="1000"
   height="1000"
   viewBox="0 0 264.58333 264.58333"
   version="1.1"
   id="svg1"
   xml:space="preserve"
   inkscape:version="1.4.4 (dcaf3e7, 2026-05-05)"
   sodipodi:docname="alman_institut.svg"
   xmlns:inkscape="http://www.inkscape.org/namespaces/inkscape"
   xmlns:sodipodi="http://sodipodi.sourceforge.net/DTD/sodipodi-0.dtd"
   xmlns="http://www.w3.org/2000/svg"
   xmlns:svg="http://www.w3.org/2000/svg"><sodipodi:namedview
     id="namedview1"
     pagecolor="#ffffff"
     bordercolor="#000000"
     borderopacity="0.25"
     inkscape:showpageshadow="2"
     inkscape:pageopacity="0.0"
     inkscape:pagecheckerboard="0"
     inkscape:deskcolor="#d1d1d1"
     inkscape:document-units="mm"
     inkscape:zoom="0.60296994"
     inkscape:cx="499.1957"
     inkscape:cy="499.1957"
     inkscape:window-width="1512"
     inkscape:window-height="855"
     inkscape:window-x="0"
     inkscape:window-y="33"
     inkscape:window-maximized="0"
     inkscape:current-layer="layer1" /><defs
     id="defs1" /><g
     inkscape:label="Layer 1"
     inkscape:groupmode="layer"
     id="layer1"
     transform="translate(-44.941487,-10.435724)"><path
       style="fill:#000000;stroke-width:1"
       d="m 173.14025,273.71988 c -5.71455,-0.31878 -14.14764,-1.19893 -15.93498,-1.66313 -0.34083,-0.0885 -1.3766,-0.28689 -2.30172,-0.44082 -7.36812,-1.226 -19.3861,-4.85362 -26.11566,-7.88297 -0.38952,-0.17534 -1.54481,-0.6753 -2.5673,-1.111 -2.22418,-0.94778 -8.37433,-4.03258 -10.35774,-5.19527 -0.77905,-0.45668 -2.09367,-1.22649 -2.92141,-1.71072 -0.82774,-0.48422 -1.90335,-1.13599 -2.39024,-1.4484 -7.07514,-4.53952 -11.562588,-7.8532 -17.262911,-12.74751 -7.264445,-6.23726 -15.311222,-15.01013 -20.930501,-22.8191 -0.693242,-0.96339 -4.879259,-7.20391 -5.541806,-8.26174 -2.553518,-4.07697 -5.399685,-9.42852 -7.721558,-14.51853 -0.777373,-1.70416 -1.487613,-3.25783 -1.578314,-3.45259 -0.310803,-0.66737 -1.257232,-3.00983 -1.681088,-4.1608 -1.669738,-4.53406 -2.208707,-6.12764 -3.203685,-9.47245 -2.243305,-7.54128 -4.174747,-17.57378 -4.840293,-25.14187 -0.560844,-6.37751 -0.559185,-16.48829 0.004,-22.57455 0.221626,-2.39632 1.243199,-9.41794 1.828944,-12.57093 0.57487,-3.09445 1.704656,-7.6714 3.190442,-12.92504 0.80214,-2.83631 3.101408,-9.330152 4.356946,-12.305344 3.787002,-8.973906 7.433053,-15.771673 12.677875,-23.636888 3.376683,-5.063721 5.152741,-7.440721 8.929792,-11.951238 9.11334,-10.883052 21.855257,-21.494414 34.339737,-28.597844 0.73036,-0.415556 1.80597,-1.032536 2.39026,-1.371065 2.48675,-1.440814 12.05464,-6.061851 12.55109,-6.061851 0.0538,0 0.51851,-0.189059 1.03266,-0.420132 1.75707,-0.789706 7.27352,-2.765881 11.20399,-4.013642 4.1847,-1.32847 12.62676,-3.302503 16.99732,-3.974532 0.9738,-0.149735 2.52746,-0.387797 3.45257,-0.529025 0.92512,-0.141229 3.39504,-0.438374 5.48871,-0.660324 3.38588,-0.358934 4.69726,-0.403249 11.86272,-0.400871 8.53966,0.0028 12.78368,0.270414 18.14817,1.144218 1.16856,0.190344 2.92141,0.470871 3.89521,0.623391 3.41025,0.534124 9.08321,1.805835 13.30915,2.983515 2.50416,0.697854 7.11285,2.190735 8.9113,2.88661 3.44781,1.334061 4.40446,1.716733 5.05771,2.023143 0.39593,0.185707 0.77202,0.337649 0.83577,0.337649 0.11016,0 0.67622,0.248429 3.31339,1.45417 1.35462,0.61934 6.36615,3.125256 7.25928,3.62986 0.34083,0.192563 1.3766,0.771803 2.30171,1.287199 9.56855,5.330799 18.53361,12.143967 26.66395,20.263784 5.39232,5.385337 7.70294,8.035238 12.05699,13.82734 1.51882,2.020446 5.58867,7.959889 6.36587,9.290196 0.19913,0.34084 0.91989,1.535958 1.6017,2.655834 2.1981,3.610383 4.77901,8.501707 7.14689,13.544736 1.52752,3.253266 4.03413,9.609806 5.44589,13.810311 3.14376,9.35385 5.42083,20.13866 6.3551,30.09941 0.44182,4.7105 0.43707,17.71396 -0.008,22.92602 -0.17882,2.0922 -0.35313,3.84936 -0.38738,3.90475 -0.0342,0.0554 -0.22843,1.29157 -0.43153,2.74702 -0.96409,6.90857 -2.36801,12.86373 -5.2362,22.2109 -0.4823,1.57179 -2.27994,6.49985 -2.75748,7.55939 -0.18412,0.40853 -0.33476,0.79053 -0.33476,0.84888 0,0.11891 -1.87953,4.51227 -2.6898,6.28732 -0.87224,1.91083 -3.78208,7.66267 -4.58041,9.05404 -2.45159,4.27274 -3.56622,6.08017 -5.88128,9.53678 -10.97719,16.39004 -26.23678,30.62908 -43.20382,40.31437 -3.99429,2.28007 -10.38578,5.47078 -12.87334,6.42654 -0.34082,0.13095 -0.69936,0.29455 -0.79674,0.36356 -0.41402,0.29336 -6.35186,2.5497 -9.33617,3.54766 -5.10882,1.70841 -12.01911,3.49516 -16.42539,4.24699 -1.11987,0.19108 -2.39467,0.4263 -2.83288,0.5227 -1.2019,0.2644 -8.805,1.2031 -11.42007,1.40996 -2.39093,0.18913 -12.41775,0.36418 -14.43001,0.25193 z m 12.83651,-2.90916 c 5.70456,-0.33734 14.17661,-1.58891 20.18432,-2.98181 8.427,-1.95384 16.52779,-4.78119 24.52216,-8.55875 6.60374,-3.12047 10.44952,-5.30925 16.64319,-9.47232 3.55237,-2.38771 3.66151,-2.46422 5.75579,-4.03503 2.22121,-1.66602 4.95233,-3.88686 7.16925,-5.82976 4.17365,-3.65776 10.38901,-10.00486 13.20474,-13.4846 0.47914,-0.59215 1.35537,-1.66775 1.94718,-2.39025 2.70803,-3.30608 7.61482,-10.21326 9.12826,-12.84966 0.15905,-0.27705 0.82203,-1.38016 1.47332,-2.45134 0.65129,-1.07119 1.58885,-2.70452 2.08347,-3.62963 1.01335,-1.89534 4.38711,-8.6401 4.38711,-8.77065 0,-0.0467 0.38813,-0.94515 0.86253,-1.99657 4.52507,-10.02922 8.33882,-23.39203 9.77768,-34.25952 1.48195,-11.19307 1.55991,-21.95841 0.23425,-32.34645 -2.53088,-19.83243 -9.3125,-38.432008 -20.33705,-55.777343 -1.52943,-2.406315 -6.02001,-8.797558 -6.46542,-9.201967 -0.0536,-0.04871 -0.42966,-0.535288 -0.83565,-1.081324 -1.52368,-2.049373 -5.58916,-6.717699 -8.22038,-9.439351 -2.24866,-2.325941 -7.00186,-6.794354 -8.8813,-8.349173 -13.51192,-11.178175 -27.828,-19.027523 -43.6849,-23.951948 -3.20458,-0.995198 -8.94061,-2.458283 -10.8889,-2.777427 -0.38953,-0.06381 -1.14643,-0.223823 -1.68203,-0.355592 -2.01683,-0.496191 -9.10211,-1.493455 -13.36767,-1.881522 -3.63705,-0.330886 -5.59462,-0.403187 -10.97743,-0.405439 -7.6663,-0.0032 -12.08063,0.329084 -18.94493,1.426092 -18.61811,2.975427 -35.25578,9.460655 -50.90341,19.841721 -4.01623,2.66448 -8.05156,5.632645 -10.969319,8.068441 -0.929579,0.77602 -1.889324,1.575885 -2.132781,1.777464 -3.486704,2.887054 -9.76691,9.136992 -13.11901,13.055783 -6.988646,8.170126 -13.210258,17.599824 -18.223803,27.620636 -1.3194,2.63716 -1.809705,3.721842 -3.481431,7.701911 -5.144062,12.247048 -8.490981,26.071678 -9.644563,39.837448 -0.27889,3.32797 -0.275444,14.19061 0.0054,17.52848 1.12187,13.32597 4.150757,26.17204 8.933787,37.88984 1.606628,3.93602 1.997861,4.80336 4.032948,8.94078 6.238509,12.68316 14.509602,24.24359 24.588643,34.36728 9.025345,9.06532 16.940349,15.13032 28.951269,22.18439 1.7236,1.01227 7.57175,3.97346 10.35774,5.24459 8.97516,4.095 19.82209,7.43688 29.83382,9.19165 3.77754,0.66209 9.71081,1.39491 12.83651,1.58542 3.48763,0.21258 12.36694,0.22127 15.84645,0.0155 z m -11.9955,-9.95499 c -0.0244,-2.84837 -0.0443,-6.49351 -0.0443,-8.10027 v -2.92143 l 3.85096,-0.0477 3.85094,-0.0478 v 1.4199 1.41988 h -2.57329 -2.57329 l 0.0502,1.90336 0.0502,1.90334 2.16892,0.0498 2.16893,0.0497 v 1.32247 1.32247 h -2.2188 -2.21882 l 0.0498,2.08039 0.0498,2.08041 2.61156,0.049 2.61157,0.0489 v 1.32319 1.32318 h -3.89522 -3.89521 z m 13.77842,3.54564 c -0.0676,-0.7085 -0.23883,-2.16461 -0.38062,-3.23579 -0.14179,-1.07118 -0.4597,-3.76954 -0.70647,-5.99634 -0.24678,-2.2268 -0.51412,-4.39896 -0.59408,-4.82702 -0.17317,-0.92698 -0.38731,-0.83864 2.95389,-1.2187 2.75435,-0.31331 3.51345,-0.22846 4.60534,0.51475 1.07421,0.73115 1.74944,1.9625 1.98432,3.61852 0.2968,2.09282 -0.10868,3.56969 -1.2419,4.52324 -0.30439,0.25612 -0.52699,0.52534 -0.49467,0.59825 0.0743,0.16772 2.07794,3.49904 2.96671,4.93268 l 0.67144,1.08305 -1.34706,0.19492 c -1.63091,0.23599 -1.38046,0.46229 -3.38108,-3.05492 l -1.46647,-2.57815 -0.72852,0.11142 c -0.40069,0.0613 -0.75806,0.13651 -0.79415,0.16717 -0.036,0.0306 0.06,0.95574 0.21341,2.05576 0.15346,1.10002 0.33076,2.45138 0.39399,3.00305 l 0.11495,1.00301 -1.03658,0.11808 c -0.57012,0.065 -1.16553,0.15344 -1.32312,0.19665 -0.23745,0.0651 -0.30755,-0.14202 -0.40933,-1.20963 z m 4.501,-8.42791 c 0.71604,-0.52946 0.92778,-1.14655 0.78514,-2.28819 -0.0972,-0.77783 -0.24374,-1.12542 -0.64273,-1.52442 -0.50576,-0.50576 -0.54723,-0.51475 -1.93606,-0.41955 -0.78056,0.0534 -1.45526,0.13332 -1.49932,0.17737 -0.044,0.0441 0.0418,1.06464 0.19077,2.26797 0.14897,1.20332 0.27086,2.22169 0.27086,2.26302 0,0.2229 2.44115,-0.18767 2.83134,-0.4762 z m -29.2891,9.15073 c -0.67505,-0.0866 -1.25119,-0.18122 -1.2803,-0.21033 -0.0873,-0.0873 -0.73202,-5.35638 -0.94613,-7.73203 -0.10971,-1.21725 -0.35351,-3.43375 -0.54176,-4.92554 -0.18826,-1.4918 -0.34229,-3.01246 -0.34229,-3.37925 v -0.66689 l 1.28365,0.19225 1.28365,0.19224 0.20729,2.30173 c 0.11401,1.26594 0.33311,3.5694 0.48691,5.11877 0.15378,1.54939 0.27961,3.16944 0.27961,3.60014 0,0.46863 0.0747,0.75815 0.18607,0.72103 0.10234,-0.0341 0.81238,-1.89319 1.57787,-4.13129 2.10272,-6.14783 2.3007,-6.69976 2.46048,-6.85954 0.14025,-0.14025 2.27963,0.11696 2.4582,0.29553 0.0902,0.0902 -0.25165,1.11248 -1.27866,3.82266 -0.35055,0.92512 -1.02811,2.75764 -1.50567,4.07228 -0.47755,1.31463 -1.15649,3.14715 -1.50875,4.07227 -0.35225,0.92511 -0.80229,2.14016 -1.00009,2.70009 -0.1978,0.55993 -0.41207,1.00799 -0.47617,0.99566 -0.0641,-0.0123 -0.66885,-0.0932 -1.34391,-0.17978 z m 40.19503,-1.90019 c -0.0367,-0.061 -0.27841,-0.98724 -0.53706,-2.05842 -0.25865,-1.07118 -1.07415,-4.33786 -1.81222,-7.25927 -0.73806,-2.92142 -1.38025,-5.52938 -1.42706,-5.79547 -0.10161,-0.57758 0.10796,-0.68033 2.4528,-1.20264 0.85963,-0.19148 2.25152,-0.54768 3.09309,-0.79156 0.84156,-0.24387 1.62847,-0.44341 1.74871,-0.44341 0.18647,0 0.87805,2.46386 0.73244,2.60948 -0.0265,0.0265 -1.10571,0.32224 -2.39824,0.65719 -1.29254,0.33497 -2.3908,0.64976 -2.44058,0.69954 -0.11456,0.11455 0.65783,3.31406 0.86369,3.57772 0.10922,0.13987 0.69475,0.0489 2.04164,-0.31721 1.0387,-0.28232 1.98199,-0.47746 2.09621,-0.43362 0.11422,0.0438 0.29982,0.53848 0.41243,1.09922 0.26982,1.34355 0.2601,1.49162 -0.0979,1.49162 -0.28296,0 -3.60231,0.88156 -3.74719,0.9952 -0.0364,0.0285 0.15685,0.93735 0.42939,2.01964 0.45522,1.80769 0.52543,1.95914 0.8629,1.8616 0.9816,-0.28374 4.75415,-1.16703 4.7902,-1.12157 0.0723,0.0913 0.78378,2.51782 0.74707,2.54823 -0.0522,0.0433 -4.96597,1.3126 -6.45671,1.66788 -0.70774,0.16865 -1.31685,0.2568 -1.35357,0.19585 z m -52.68944,-0.26571 c -0.48229,-0.13084 -0.79564,-0.31763 -0.79394,-0.47326 0.003,-0.31009 0.69449,-3.29696 1.17953,-5.0977 0.1925,-0.71471 0.31889,-1.33059 0.28085,-1.36862 -0.11339,-0.1134 -3.47772,-0.96154 -3.81412,-0.96154 -0.25375,0 -0.45214,0.55712 -1.08759,3.0542 -0.42747,1.67982 -0.83618,3.12155 -0.90825,3.20385 -0.12967,0.1481 -1.8983,-0.17141 -2.29046,-0.41377 -0.14392,-0.089 0.3953,-2.4181 1.84587,-7.97312 1.12704,-4.3161 2.0764,-7.87468 2.10967,-7.90795 0.0332,-0.0332 0.59118,0.10342 1.23977,0.30375 1.13361,0.35014 1.17494,0.38281 1.06705,0.84358 -0.0617,0.26363 -0.42522,1.70601 -0.80777,3.2053 -0.38254,1.49928 -0.63147,2.78173 -0.55319,2.8499 0.21123,0.18392 3.79138,1.10331 3.89457,1.00013 0.0488,-0.0488 0.43176,-1.45427 0.8512,-3.12342 0.41943,-1.66915 0.80963,-3.08184 0.86712,-3.13933 0.11718,-0.11718 1.84643,0.2403 2.18237,0.45114 0.23808,0.14943 0.31778,-0.21231 -2.17206,9.85893 -1.62547,6.57491 -1.39368,6.14832 -3.09062,5.68793 z m 65.61265,-4.22722 c -0.15468,-0.41387 -0.39016,-1.11103 -0.52329,-1.54924 -0.13315,-0.43821 -1.17757,-3.42602 -2.32097,-6.63957 -1.14339,-3.21356 -2.0897,-5.95353 -2.10291,-6.08884 -0.023,-0.23486 1.40245,-0.86072 2.02951,-0.89113 0.32725,-0.0158 0.50637,0.38949 1.87174,4.2356 2.98965,8.42159 3.79763,10.85057 3.65258,10.98057 -0.17685,0.15851 -1.80942,0.70508 -2.10604,0.70508 -0.12067,0 -0.34595,-0.33861 -0.50062,-0.75247 z m -82.52144,-0.9991 c -1.08948,-0.28437 -2.39916,-1.09668 -2.91395,-1.80733 -1.29179,-1.78327 -1.21916,-3.34316 0.3372,-7.24146 1.80195,-4.51346 2.01398,-4.95189 2.78354,-5.75592 1.11527,-1.16524 1.69152,-1.41273 3.24579,-1.39403 1.63649,0.0197 2.41411,0.34031 3.52874,1.45495 1.15727,1.15728 1.46518,2.38067 1.06674,4.23852 l -0.18501,0.86268 -1.23347,-0.26484 -1.23348,-0.26484 0.10966,-0.8266 c 0.24276,-1.83 -1.3573,-3.02837 -2.94633,-2.20665 -0.63998,0.33095 -1.02019,1.0655 -2.55824,4.94251 -0.97339,2.45364 -1.17295,3.12423 -1.09737,3.68765 0.108,0.80521 0.51751,1.32322 1.31181,1.65941 0.95151,0.40273 1.29597,0.3018 2.21135,-0.64788 l 0.85692,-0.88904 1.06544,0.72353 1.06545,0.72354 -0.39005,0.6524 c -0.59792,1.00008 -1.05494,1.44623 -1.94626,1.9 -0.91071,0.46363 -2.27148,0.66405 -3.07848,0.4534 z m 90.95639,-1.83379 c -0.10911,-0.2191 -0.59302,-1.2748 -1.07534,-2.34598 -0.80688,-1.79203 -1.22244,-2.68542 -3.25313,-6.99369 -0.39015,-0.82773 -1.05849,-2.20807 -1.48521,-3.06743 -0.42671,-0.85935 -0.7737,-1.61627 -0.77108,-1.68202 0.003,-0.0658 0.5164,-0.34808 1.14173,-0.62735 l 1.13698,-0.5078 2.87268,2.36687 c 4.31013,3.55122 5.64423,4.59723 5.64423,4.42548 0,-0.25451 -0.7429,-1.85635 -2.53653,-5.46932 l -1.69323,-3.4107 1.04749,-0.52878 c 0.57613,-0.29082 1.09344,-0.52877 1.14957,-0.52877 0.1706,0 7.24486,14.51066 7.12453,14.61377 -0.27949,0.23953 -1.99128,0.97441 -2.1734,0.93306 -0.13198,-0.0299 -2.12147,-1.59746 -4.42109,-3.48331 -2.29962,-1.88584 -4.22312,-3.38683 -4.27446,-3.33549 -0.0513,0.0513 0.3511,1.0213 0.89429,2.15548 0.54319,1.13418 0.98761,2.09084 0.98761,2.12589 0,0.0351 0.47805,1.06621 1.06233,2.29146 0.58429,1.22524 1.06234,2.31103 1.06234,2.41286 0,0.18418 -1.68522,1.04911 -2.05049,1.05242 -0.10527,6.6e-4 -0.28068,-0.17754 -0.38982,-0.39665 z m -101.13898,-2.95367 c -1.62781,-0.92664 -1.50037,-0.66268 -1.07266,-2.22171 0.20801,-0.75822 0.35562,-1.40095 0.32802,-1.4283 -0.0277,-0.0274 -0.91962,-0.53406 -1.98224,-1.12601 l -1.93205,-1.07626 -0.98937,1.06478 -0.98936,1.06478 -1.06234,-0.64208 c -0.58428,-0.35315 -1.09646,-0.67445 -1.13817,-0.71402 -0.0417,-0.0395 0.71698,-0.88767 1.68599,-1.88468 0.96901,-0.99701 3.57144,-3.67451 5.78316,-5.95001 l 4.02132,-4.13726 1.15293,0.59616 c 0.6341,0.32789 1.15245,0.63598 1.15186,0.68468 -5.9e-4,0.0488 -0.36306,1.52268 -0.80549,3.27553 -0.44244,1.75284 -1.03753,4.1431 -1.32242,5.31165 -0.64368,2.64028 -1.93567,7.58362 -1.9901,7.61448 -0.0222,0.0125 -0.39982,-0.18168 -0.83908,-0.43173 z m 0.29252,-7.28319 c 0.12053,-0.43166 0.46393,-1.66126 0.76312,-2.73245 0.2992,-1.07118 0.52311,-2.05912 0.49761,-2.19544 -0.0255,-0.13631 -0.99082,0.7677 -2.14515,2.00891 -1.15432,1.24121 -2.03074,2.3233 -1.9476,2.40465 0.29897,0.29251 2.27951,1.37708 2.44436,1.33855 0.0927,-0.0217 0.26713,-0.39256 0.38766,-0.82422 z m 114.86869,1.56115 c -0.56136,-0.90076 -1.43108,-2.27516 -1.93272,-3.0542 -1.06975,-1.66135 -3.29384,-5.17524 -4.11739,-6.5052 -1.69444,-2.73632 -1.65884,-2.5865 -0.72882,-3.06743 0.29217,-0.15109 1.68864,-1.03438 3.10326,-1.96286 l 2.57206,-1.68818 0.29382,0.4131 c 0.1616,0.22721 0.51148,0.75299 0.77749,1.16843 l 0.48367,0.75532 -1.54601,0.98897 c -2.41384,1.54411 -2.69435,1.74269 -2.69565,1.90846 -9.9e-4,0.19309 1.774,3.10234 1.96562,3.22077 0.0769,0.0476 0.88869,-0.39382 1.80393,-0.98079 0.91523,-0.58697 1.74972,-1.06722 1.85441,-1.06722 0.10471,0 0.47813,0.45813 0.82984,1.01806 l 0.63947,1.01807 -0.42675,0.35411 c -0.23472,0.19476 -0.9975,0.70538 -1.69508,1.13471 -0.69759,0.42933 -1.30549,0.84072 -1.35091,0.9142 -0.0455,0.0735 0.31207,0.75799 0.79441,1.52112 1.53975,2.4362 2.29059,3.68104 2.40723,3.99112 0.0859,0.22825 -0.12578,0.455 -0.86763,0.92954 -0.53965,0.34522 -1.01772,0.62766 -1.06238,0.62766 -0.0447,0 -0.5405,-0.73699 -1.10187,-1.63776 z m -129.63357,-2.99018 c -0.60863,-0.40123 -1.1066,-0.80945 -1.1066,-0.90716 0,-0.0977 0.27168,-1.30244 0.60373,-2.67719 0.90861,-3.76188 0.89087,-3.6247 0.52153,-4.03282 -0.77631,-0.85782 -0.80732,-0.83813 -2.71713,1.72541 -1.37434,1.84479 -1.86078,2.37904 -2.08707,2.29221 -0.5863,-0.22499 -1.79871,-1.24989 -1.72518,-1.45837 0.0414,-0.11736 0.77091,-1.15314 1.62115,-2.30171 4.71953,-6.3756 7.67902,-10.30102 7.84235,-10.40196 0.18568,-0.11476 3.03608,1.91529 4.32763,3.08212 1.66222,1.50173 1.76981,3.93143 0.27158,6.13359 -1.05785,1.55487 -2.36915,2.38924 -3.85865,2.45522 l -0.9869,0.0437 -0.66365,3.07999 c -0.36501,1.694 -0.66522,3.21943 -0.66713,3.38984 -0.005,0.43694 -0.12954,0.39862 -1.37566,-0.42287 z m 4.56391,-9.24829 c 0.56623,-0.38475 1.41171,-1.71416 1.41171,-2.21972 0,-0.50443 -0.60733,-1.30151 -1.51227,-1.98473 -0.53673,-0.40525 -0.99648,-0.70572 -1.02164,-0.66774 -0.0252,0.038 -0.32373,0.42762 -0.66349,0.86584 -0.33977,0.4382 -0.95622,1.25375 -1.36988,1.81233 l -0.75211,1.01559 1.08567,0.79923 c 1.26127,0.9285 1.88945,1.01291 2.82201,0.3792 z m 60.45966,8.72856 c -4.82776,-0.20775 -7.56646,-0.5231 -13.1021,-1.50865 -6.52403,-1.16154 -14.6612,-3.69651 -21.24664,-6.61898 -3.31776,-1.47234 -8.81689,-4.25131 -10.22153,-5.16542 -0.35131,-0.22862 -1.04712,-0.6547 -1.54625,-0.94684 -2.79779,-1.63755 -8.10821,-5.37555 -11.44362,-8.05515 -4.5485,-3.65417 -10.96335,-9.89066 -14.84362,-14.43088 -4.448976,-5.20567 -8.921183,-11.46042 -12.089931,-16.90877 -2.206104,-3.7932 -2.398555,-4.17839 -2.47695,-4.95757 -0.0534,-0.53059 0.0061,-0.91175 0.17801,-1.14101 0.246334,-0.3285 0.279325,-0.33042 0.719991,-0.0417 0.254002,0.16642 0.632151,0.64005 0.840329,1.05249 1.484675,2.94143 5.729875,9.76572 8.181161,13.15147 4.66637,6.44526 12.44646,14.89239 18.31794,19.88847 4.13172,3.5157 10.89821,8.37422 14.38085,10.32581 0.43821,0.24557 1.71301,0.96439 2.83289,1.59737 7.55888,4.27246 17.69875,8.09619 25.97011,9.79327 1.08851,0.22334 2.12428,0.45101 2.30171,0.50595 0.71761,0.22216 7.38847,1.15925 9.70654,1.36352 3.22246,0.28395 12.41292,0.28411 15.58087,2.6e-4 5.75319,-0.51547 13.9491,-2.10375 18.94492,-3.67132 3.21808,-1.00976 8.17774,-2.84356 10.35774,-3.82973 7.47534,-3.38157 14.12824,-7.25535 19.7798,-11.51718 0.92618,-0.69842 1.91638,-1.43867 2.20043,-1.64498 0.28406,-0.20633 1.72911,-1.41598 3.21123,-2.68811 8.89107,-7.63144 16.71798,-17.0141 22.70099,-27.21324 1.76228,-3.00411 2.39982,-4.0133 2.65635,-4.20485 0.61468,-0.45894 1.04001,0.46513 0.77081,1.67468 -0.27057,1.21567 -4.89855,8.73509 -7.855,12.7626 -5.32986,7.26071 -12.53384,14.84046 -19.35448,20.36403 -5.94739,4.81639 -13.64562,9.66058 -20.30344,12.77613 -1.16857,0.54683 -2.36369,1.10704 -2.65583,1.2449 -0.74766,0.35283 -3.31063,1.40017 -4.78049,1.95353 -6.32318,2.38048 -12.39066,3.98582 -19.03345,5.03587 -5.00073,0.79049 -5.86949,0.86335 -13.54473,1.13589 -0.9738,0.0346 -3.28438,-0.002 -5.13461,-0.0819 z m 73.91577,-3.04114 c -0.51832,-1.19291 -2.03308,-4.65551 -3.36616,-7.69467 l -2.42378,-5.52573 1.03341,-0.81188 1.0334,-0.8119 1.73119,1.30957 c 2.03163,1.53684 3.85248,2.87286 8.50424,6.23985 3.19963,2.31593 3.38841,2.48385 3.07381,2.73432 -0.18436,0.14676 -0.65453,0.526 -1.04483,0.84276 l -0.70965,0.57591 -1.06054,-0.79723 c -0.58331,-0.43848 -1.16914,-0.79599 -1.30184,-0.79447 -0.25729,0.003 -3.38994,2.38989 -3.48432,2.65491 -0.0308,0.0866 0.18828,0.65816 0.48691,1.27025 0.29862,0.61209 0.54294,1.20398 0.54294,1.31531 0,0.1825 -1.76444,1.66193 -1.9821,1.66193 -0.0496,0 -0.51437,-0.97602 -1.03268,-2.16893 z m 2.61922,-6.10448 0.57826,-0.49083 -0.57826,-0.45706 c -2.08124,-1.64506 -4.43412,-3.35946 -4.50852,-3.28507 -0.0483,0.0483 0.0361,0.3126 0.18788,0.58714 0.15172,0.27454 0.51803,1.03697 0.814,1.69429 0.29597,0.65731 0.78059,1.71699 1.07691,2.35484 l 0.53876,1.15972 0.65636,-0.53609 c 0.361,-0.29486 0.91657,-0.75696 1.23461,-1.02694 z M 91.898297,230.18267 c -0.423662,-0.4291 -0.742362,-0.85996 -0.70822,-0.95745 0.06631,-0.18944 2.134956,-2.46706 5.885982,-6.48065 3.670741,-3.92769 4.937671,-5.22313 5.108151,-5.22313 0.34699,0 4.09311,3.84094 4.40345,4.5149 0.46549,1.01089 0.44153,2.6963 -0.0532,3.74897 -0.57767,1.22896 -2.2682,2.94666 -3.37508,3.42934 -1.81266,0.79045 -3.14309,0.44352 -5.205688,-1.35745 l -1.088985,-0.95085 -1.898559,2.03564 c -1.044205,1.11961 -1.988312,2.03232 -2.098012,2.02825 -0.109699,-0.004 -0.546088,-0.35848 -0.96975,-0.78757 z m 10.803413,-3.86097 c 0.87374,-0.66642 1.55684,-1.7521 1.5611,-2.48113 0.002,-0.35829 -0.25198,-0.76702 -0.90805,-1.46071 -0.50102,-0.52976 -1.01117,-0.9632 -1.13365,-0.9632 -0.24587,0 -3.267048,3.21854 -3.267048,3.48048 0,0.20299 1.376718,1.53821 1.859078,1.80304 0.59841,0.32855 1.09103,0.22982 1.88857,-0.37848 z m 157.16622,4.40855 c -1.03621,-0.3701 -2.18296,-1.32248 -4.96555,-4.12391 -2.76508,-2.7838 -3.24919,-3.50975 -3.44542,-5.1667 -0.20993,-1.77249 1.13095,-4.03239 2.86317,-4.82553 1.06874,-0.48936 2.71355,-0.44076 3.88805,0.11486 1.38043,0.65305 1.46458,0.81118 0.91446,1.71857 -0.90483,1.49248 -0.86173,1.46913 -1.75037,0.94836 -0.42984,-0.25192 -0.91793,-0.45802 -1.08462,-0.45802 -0.53723,0 -1.35415,0.53304 -1.70911,1.11519 -0.45375,0.74418 -0.43671,1.48228 0.0523,2.26668 0.43365,0.69554 5.0525,5.24955 5.67711,5.59742 0.74514,0.41498 1.66407,0.27853 2.34248,-0.34784 0.87319,-0.80622 0.99425,-1.66281 0.36861,-2.60821 -0.25623,-0.3872 -0.46471,-0.76545 -0.46328,-0.84057 9.9e-4,-0.0751 0.45957,-0.47449 1.01808,-0.88748 l 1.01546,-0.75089 0.32843,0.39508 c 1.22054,1.46823 1.55141,3.68135 0.78102,5.22393 -0.5037,1.00854 -2.07929,2.4554 -2.93167,2.69213 -0.88451,0.24567 -2.10941,0.21901 -2.89919,-0.0631 z m -83.71774,-5.07469 c -5.53324,-0.36575 -11.17322,-1.89262 -16.33998,-4.42361 -9.69462,-4.74901 -17.32196,-12.85767 -22.68514,-24.11671 -1.01266,-2.12589 -1.27463,-2.74303 -2.34846,-5.5324 -1.06221,-2.75916 -2.61798,-7.91553 -3.15185,-10.44628 -0.16434,-0.77904 -0.36973,-1.65547 -0.45641,-1.9476 -0.35286,-1.18923 -1.23131,-6.74632 -1.52535,-9.64952 -0.43999,-4.34432 -0.44307,-13.76943 -0.006,-17.97112 0.43954,-4.22419 1.82806,-11.70082 2.77851,-14.96117 0.18451,-0.63298 0.6289,-2.18664 0.98752,-3.45259 0.3586,-1.26594 1.63267,-5.25415 2.83125,-8.86268 1.19857,-3.60853 2.46813,-7.54577 2.82125,-8.74943 1.35024,-4.60252 2.38309,-10.23515 3.00621,-16.394265 0.61793,-6.107912 2.08674,-11.387705 4.42974,-15.923224 5.06703,-9.808553 14.63872,-16.929333 25.76336,-19.166427 2.17273,-0.436924 2.75276,-0.480937 6.374,-0.483687 3.48849,-0.0027 4.22586,0.04778 5.93134,0.405774 6.44401,1.352598 11.25995,3.945611 15.84678,8.532266 3.75559,3.755442 5.98528,7.12097 8.44581,12.748212 1.05207,2.406117 2.19156,6.274979 2.9724,10.092154 1.35876,6.642407 1.87369,8.614747 3.72113,14.252947 0.4148,1.26595 1.09061,3.37734 1.50181,4.69197 0.4112,1.31464 0.89268,2.82847 1.06999,3.36405 0.1773,0.5356 0.61451,1.96975 0.97159,3.187 0.35708,1.21726 0.79622,2.69124 0.97587,3.27553 1.03129,3.35415 3.29238,12.67877 3.7996,15.6694 0.1569,0.92511 0.35799,1.96088 0.44685,2.30171 0.29511,1.13176 1.21601,8.54639 1.3964,11.24302 0.78582,11.74665 -0.12041,22.53277 -2.67765,31.86996 -1.97477,7.21042 -3.6687,11.57334 -6.6662,17.16966 -7.59599,14.18167 -19.94729,22.4046 -34.99137,23.29564 -1.4607,0.0866 -2.77535,0.14801 -2.92142,0.13665 -0.14607,-0.0113 -1.18184,-0.0812 -2.30171,-0.15523 z m -0.24101,-10.70029 c 0.92793,-0.3877 1.30335,-0.77053 1.30335,-1.32905 0,-0.9341 -1.43416,-1.61826 -3.45259,-1.64703 -1.53315,-0.0219 -2.58761,0.27258 -3.32016,0.92712 -0.50684,0.45285 -0.54167,0.54658 -0.35524,0.95575 0.2691,0.59059 0.80117,0.92688 1.99573,1.26135 1.14208,0.31978 2.83958,0.24524 3.82891,-0.16814 z m 25.02497,-12.84541 c 2.17466,-1.20012 0.80771,-2.63173 -2.31244,-2.42183 -2.16472,0.14563 -3.46875,1.01884 -3.01352,2.01795 0.32159,0.70582 1.14438,0.9565 2.9395,0.89558 1.29748,-0.0441 1.74081,-0.13538 2.38646,-0.4917 z m -42.89448,-8.84719 c 2.52106,-1.10244 -0.59106,-3.48276 -4.0771,-3.1184 -2.70264,0.28249 -3.31196,1.86289 -1.10736,2.87218 1.81699,0.83185 3.64654,0.91873 5.18446,0.24622 z m 52.35162,-18.77203 c 1.47929,-0.21383 2.66144,-0.71268 3.41359,-1.44048 0.80473,-0.77869 0.88105,-1.28379 0.3217,-2.12903 -1.19941,-1.81244 -5.81958,-2.6538 -8.92657,-1.62559 -1.32452,0.43833 -2.31447,1.39601 -2.31447,2.23903 0,1.19975 1.57225,2.39863 3.62965,2.76771 2.2639,0.40613 2.34295,0.40998 3.8761,0.18836 z M 145.69667,157.902 c 1.23052,-0.57488 2.16199,-1.41726 2.46974,-2.23348 0.5567,-1.47644 -1.62379,-2.70375 -4.00222,-2.25268 -4.04332,0.7668 -6.2087,3.52589 -3.74897,4.77688 0.66971,0.34061 0.97904,0.38083 2.44857,0.3184 1.41148,-0.06 1.86714,-0.15793 2.83288,-0.60912 z m 41.14792,-11.09547 c 0.59004,-0.24654 1.1683,-0.88201 1.1683,-1.2839 0,-0.431 -0.96115,-1.33532 -1.94957,-1.83426 -2.75313,-1.38978 -6.37202,-0.98975 -6.37202,0.70435 0,0.66124 1.07168,1.62263 2.32282,2.0838 0.52398,0.19313 1.07221,0.39565 1.21828,0.45005 0.5491,0.20446 3.03311,0.12191 3.61219,-0.12004 z m 28.53784,-10.73055 c 0.53997,0 1.13638,-0.58331 1.13638,-1.1114 0,-1.33831 -3.38666,-3.10562 -5.59955,-2.92211 -2.3926,0.19841 -2.12292,1.97349 0.50034,3.29338 1.056,0.53133 2.78429,0.95435 3.29888,0.80744 0.12968,-0.037 0.42847,-0.0674 0.66395,-0.0674 z M 151.77086,120.231 c 2.06239,-0.53719 4.2765,-1.94953 5.10549,-3.2567 1.45689,-2.2973 -0.49248,-3.7897 -3.83894,-2.93905 -2.46795,0.62735 -4.98962,2.32754 -5.7346,3.86644 -0.31387,0.64836 -0.3389,0.84992 -0.16685,1.34345 0.3951,1.13341 2.41716,1.56351 4.6349,0.98586 z m 37.48941,-5.62479 c 1.00399,-0.627 0.35238,-1.552 -1.40994,-2.00152 -1.69123,-0.43139 -3.37854,-0.0394 -3.37854,0.78485 0,0.51452 0.9143,1.17102 2.03614,1.46201 0.68878,0.17866 2.30394,0.0346 2.75234,-0.24534 z m 13.95177,-18.81992 c 1.85222,-0.741116 0.9933,-2.533122 -1.87161,-3.904858 -1.14899,-0.550138 -1.61591,-0.672344 -2.82709,-0.739919 -1.68241,-0.09387 -2.12689,-0.01164 -2.66927,0.493625 -0.82329,0.767014 -0.33932,2.001808 1.16069,2.961354 2.00295,1.281269 4.69096,1.796501 6.20728,1.189798 z m -43.51586,-8.685888 c 1.70102,-0.504746 3.35192,-1.901631 3.35192,-2.836188 0,-1.118772 -1.30758,-1.644377 -3.23063,-1.298629 -3.19498,0.574436 -5.55055,2.906935 -4.09329,4.053217 0.58998,0.46408 2.5475,0.504298 3.972,0.0816 z m 27.06144,-10.351088 c 1.65821,-0.355626 2.2862,-1.338613 1.33379,-2.08778 -1.52305,-1.198035 -4.98911,-1.280439 -6.23118,-0.148137 -0.52135,0.475262 -0.50251,0.752446 0.0885,1.303325 1.0127,0.943873 2.97857,1.325122 4.80887,0.932592 z M 85.521574,222.78352 c -0.813442,-0.25999 -2.18571,-1.63843 -2.786598,-2.79914 -0.67389,-1.3017 -0.686899,-2.71468 -0.03654,-3.96791 0.252678,-0.48691 0.61015,-1.02148 0.79439,-1.18793 0.319717,-0.28887 0.380319,-0.26592 1.330263,0.50377 l 0.995287,0.80644 -0.42585,0.62753 c -0.234215,0.34513 -0.42585,0.86449 -0.42585,1.15413 0,0.7785 0.67383,1.84608 1.375298,2.17895 0.533735,0.25327 0.688585,0.25876 1.251838,0.0444 0.722159,-0.27486 1.44514,-1.21136 1.44514,-1.87193 0,-0.24015 -0.208304,-1.28406 -0.46289,-2.3198 -0.559539,-2.27632 -0.512635,-3.52059 0.177054,-4.69746 0.731921,-1.24893 2.122609,-2.23914 3.5104,-2.49948 1.508765,-0.28304 3.530877,0.85256 4.522858,2.54002 0.414259,0.70469 0.485133,1.02136 0.482135,2.15407 -0.0034,1.35963 -0.189882,1.90047 -0.967636,2.80941 l -0.35867,0.41917 -0.972856,-0.75055 c -0.535067,-0.4128 -0.972848,-0.77158 -0.972848,-0.7973 0,-0.0257 0.119022,-0.27498 0.264495,-0.5539 0.145468,-0.27893 0.264984,-0.85364 0.26558,-1.27712 6.7e-4,-0.63382 -0.09615,-0.86082 -0.548799,-1.28365 -0.785905,-0.73414 -1.596737,-0.70417 -2.389226,0.0883 -0.749187,0.74919 -0.764887,1.17303 -0.139512,3.76596 0.547159,2.26863 0.501762,3.39715 -0.183712,4.56683 -1.196156,2.04109 -3.612303,3.02844 -5.74376,2.34719 z m 185.229806,-2.55817 c -0.60348,-0.46465 -1.71885,-1.32288 -2.47862,-1.90716 -0.75976,-0.58429 -2.6572,-2.05827 -4.21654,-3.27553 -1.55933,-1.21725 -3.29233,-2.5615 -3.85111,-2.98721 -0.55878,-0.42571 -1.01597,-0.81672 -1.01597,-0.86892 0,-0.12713 1.43843,-1.98669 1.53678,-1.98669 0.0718,0 1.83486,1.33774 4.12899,3.13297 0.5356,0.4191 1.02965,0.76206 1.0979,0.76213 0.24206,2.2e-4 2.6476,-3.4073 2.50235,-3.54467 -0.0812,-0.0768 -1.22328,-0.95043 -2.53791,-1.94136 -1.31464,-0.99094 -2.41773,-1.87771 -2.45131,-1.9706 -0.0965,-0.26703 1.40795,-2.11342 1.61686,-1.9843 0.10329,0.0639 0.99062,0.72513 1.97183,1.46955 3.77605,2.86476 10.53305,7.97162 10.70607,8.09153 0.0381,0.0264 -0.27757,0.50817 -0.70147,1.07059 -0.42393,0.56241 -0.78411,1.04617 -0.80044,1.07501 -0.0163,0.0289 -1.19219,-0.82766 -2.61302,-1.90334 -1.42084,-1.07569 -2.68531,-1.95565 -2.80995,-1.95548 -0.12463,1.8e-4 -0.34612,0.19478 -0.49219,0.43246 -0.14607,0.23767 -0.65099,0.95871 -1.12204,1.6023 -0.47105,0.64357 -0.81587,1.27591 -0.76627,1.40517 0.0496,0.12928 0.83339,0.80271 1.74174,1.49654 0.90835,0.69381 2.02511,1.55453 2.4817,1.91269 l 0.83016,0.6512 -0.33032,0.45472 c -0.18168,0.2501 -0.55525,0.71539 -0.83016,1.03399 l -0.49984,0.57925 z m 7.29416,-14.69718 c -0.38952,-0.15916 -2.69861,-1.47979 -5.13129,-2.93475 -2.43268,-1.45495 -4.60382,-2.72772 -4.82476,-2.82839 -0.22092,-0.10066 -0.40169,-0.25782 -0.40169,-0.34923 0,-0.0914 0.29555,-0.65628 0.65678,-1.25523 0.36121,-0.59897 0.67071,-1.11302 0.68776,-1.14234 0.0265,-0.0456 1.71513,0.94064 6.4459,3.76455 3.98696,2.37991 4.64543,2.59072 5.6902,1.82174 0.70188,-0.5166 1.03791,-1.18288 1.03791,-2.05802 0,-1.26994 -0.20658,-1.42353 -7.52485,-5.59477 -1.65548,-0.94358 -3.08643,-1.78959 -3.17989,-1.88003 -0.21644,-0.20943 0.87226,-2.46268 1.1899,-2.46268 0.12458,0 1.0615,0.48769 2.08205,1.08377 1.02055,0.59607 2.37343,1.38261 3.00639,1.74787 5.75638,3.32176 5.99734,3.49863 6.75651,4.9588 0.61017,1.1736 0.58269,2.93418 -0.0663,4.24933 -1.08497,2.19857 -2.51201,3.19394 -4.55602,3.17787 -0.64582,-0.005 -1.47439,-0.13744 -1.86857,-0.29849 z m -206.364292,-1.62992 -0.730321,-1.22931 1.466955,-2.00196 c 0.80683,-1.10105 1.730038,-2.32952 2.051568,-2.7299 l 0.584614,-0.72798 -0.46236,-0.82725 -0.462367,-0.82725 -0.733997,0.42738 c -0.572347,0.33325 -3.931545,2.08264 -4.576687,2.38342 -0.171298,0.0799 -1.407872,-2.40745 -1.24534,-2.50494 0.18254,-0.1095 2.149183,-1.16238 3.937166,-2.10785 0.827736,-0.4377 2.89928,-1.5374 4.603441,-2.44376 5.888472,-3.13186 5.489169,-2.95334 5.724842,-2.55945 0.113581,0.18983 0.795943,1.46272 1.516361,2.82867 1.196834,2.26925 1.316331,2.59047 1.384976,3.72292 0.06324,1.04372 0.01024,1.36462 -0.336045,2.0326 -1.218195,2.35008 -4.968932,3.68184 -6.997903,2.48473 -0.560563,-0.33076 -0.607112,-0.33314 -0.84836,-0.0434 -0.293244,0.35218 -1.719853,2.29565 -3.011174,4.10212 -0.486907,0.68114 -0.941478,1.24115 -1.010162,1.24448 -0.06868,0.003 -0.453528,-0.54716 -0.855207,-1.22328 z m 9.036107,-6.79694 c 0.947379,-0.47906 1.476631,-1.34779 1.31254,-2.15442 -0.106206,-0.52208 -1.250359,-2.74436 -1.412945,-2.74436 -0.13913,0 -3.690906,1.79832 -3.925241,1.98741 -0.168241,0.13577 -0.07091,0.44893 0.420235,1.35209 0.351556,0.64647 0.832982,1.35467 1.069839,1.57377 0.560665,0.51864 1.491809,0.51332 2.535572,-0.0145 z m 40.604055,-1.49047 c 0.12008,-0.2678 0.56535,-1.16414 0.9895,-1.99187 0.95565,-1.86493 2.63155,-5.50431 3.66897,-7.9675 0.43064,-1.0225 0.95266,-2.21216 1.16002,-2.64369 0.36551,-0.76067 0.38198,-0.77148 0.53971,-0.35412 0.0894,0.23678 0.35106,1.14759 0.58128,2.02402 0.23022,0.87641 0.66513,2.39024 0.96648,3.36405 0.54228,1.75237 0.54482,1.77872 0.24818,2.56729 -1.0987,2.92069 -4.82418,5.48872 -7.96255,5.48872 -0.38208,0 -0.39509,-0.033 -0.19159,-0.4869 z m 110.56375,0.21222 c -2.58584,-0.62694 -4.84925,-2.37898 -6.02425,-4.66317 l -0.64428,-1.25248 0.41711,-1.28696 c 0.65141,-2.00985 1.48282,-4.938 1.60966,-5.66906 0.0634,-0.36518 0.16608,-0.66388 0.22829,-0.66377 0.0622,1.1e-4 0.36767,0.57774 0.67885,1.28365 2.82906,6.41779 4.57035,10.09213 5.5168,11.64119 0.20824,0.34083 0.37892,0.67946 0.37928,0.75249 0.001,0.20063 -1.02711,0.13313 -2.16146,-0.14189 z m 55.45578,-5.06075 c -1.11987,-0.48575 -2.51418,-1.06816 -3.09846,-1.29425 -0.58428,-0.22611 -1.73958,-0.70528 -2.5673,-1.06485 -0.82774,-0.35955 -1.80543,-0.76431 -2.17266,-0.89945 -0.36722,-0.13513 -0.92494,-0.36257 -1.23938,-0.50539 -0.31444,-0.14283 -1.18919,-0.51174 -1.94389,-0.81981 -0.7547,-0.30808 -1.37218,-0.59435 -1.37218,-0.63618 0,-0.0418 0.24387,-0.65703 0.54194,-1.36711 l 0.54195,-1.29107 3.66312,-0.30254 c 4.64116,-0.38332 7.11569,-0.67684 7.11569,-0.84403 0,-0.072 -0.29877,-0.22777 -0.66395,-0.34607 -0.36518,-0.11831 -0.98265,-0.3595 -1.37218,-0.53596 -0.38952,-0.17647 -1.1066,-0.47647 -1.59349,-0.66667 -1.08848,-0.42521 -3.66197,-1.47969 -4.55778,-1.86756 l -0.66255,-0.28685 0.36717,-0.92776 c 0.20195,-0.51025 0.4098,-1.06717 0.46189,-1.2376 0.052,-0.17041 0.133,-0.30984 0.17982,-0.30984 0.0469,0 2.64686,1.02826 5.77791,2.28503 8.52105,3.42026 8.51511,3.41782 8.66532,3.5525 0.14704,0.13185 -0.71928,2.65974 -0.91263,2.66304 -0.0618,9.9e-4 -1.82529,0.15466 -3.91897,0.34137 -4.46511,0.39819 -7.08227,0.72154 -7.08205,0.87501 9e-5,0.0603 0.45821,0.28183 1.01807,0.49232 0.55985,0.21048 1.69514,0.67462 2.52288,1.03141 0.82773,0.35679 1.79228,0.75463 2.14344,0.88411 0.35117,0.12947 1.09053,0.44217 1.64302,0.69489 0.55249,0.25271 1.06191,0.46069 1.13207,0.46218 0.0701,0.001 0.23035,0.068 0.356,0.14765 0.17992,0.11416 0.12854,0.41453 -0.24183,1.41374 -0.25866,0.69783 -0.52081,1.26297 -0.58258,1.25585 -0.0618,-0.007 -1.02853,-0.41037 -2.14841,-0.89611 z M 112.27748,189.2529 c -0.2191,-0.0467 -0.39837,-0.15885 -0.39837,-0.24917 0,-0.0903 0.46933,-1.0608 1.04296,-2.15662 1.7545,-3.35162 4.44397,-9.88094 6.47275,-15.71417 0.55884,-1.60678 1.16074,-3.31979 1.33755,-3.80669 0.17681,-0.48691 0.69544,-2.0804 1.15252,-3.54111 1.18035,-3.77213 1.57021,-4.86902 1.7306,-4.86902 0.0772,0 0.45595,0.16096 0.84159,0.3577 l 0.70117,0.35772 v 2.61099 c 0,3.59474 0.28553,7.67644 0.80151,11.45771 0.48474,3.55239 0.49369,3.45339 -0.58353,6.46252 -1.749,4.88568 -3.66835,7.34299 -6.66403,8.53186 -1.32579,0.52614 -1.60497,0.57144 -3.73463,0.60594 -1.26594,0.0205 -2.48098,-6.7e-4 -2.70009,-0.0477 z m 125.5765,-0.0451 c -2.14262,-0.58555 -4.19528,-1.93023 -5.43475,-3.56029 -1.15442,-1.5182 -2.4112,-4.18766 -3.41085,-7.24484 -0.35851,-1.09641 -0.46024,-1.68592 -0.3819,-2.21319 0.0587,-0.3953 0.18614,-1.25291 0.28316,-1.90582 0.36545,-2.45948 0.71126,-7.90329 0.71126,-11.19663 v -3.41462 l 0.84102,-0.33269 c 0.46256,-0.18299 0.9102,-0.33324 0.99476,-0.33391 0.0846,-6.5e-4 0.37375,0.71588 0.64261,1.5923 1.51421,4.93592 3.15007,9.71992 4.78287,13.98738 1.82738,4.77595 3.72515,9.17075 5.17954,11.99455 0.68936,1.33846 1.19535,2.4916 1.12443,2.56252 -0.18393,0.18392 -4.69585,0.23912 -5.33215,0.0653 z M 65.443744,187.24435 c -2.101933,-0.63217 -3.671306,-2.97455 -3.671306,-5.47963 0,-1.3332 0.452717,-2.39228 1.381185,-3.23109 0.924145,-0.83492 1.320444,-1.03382 3.578249,-1.79595 2.168891,-0.73212 8.2781,-2.86092 8.692787,-3.02908 0.307926,-0.12486 0.488071,0.20463 0.933213,1.70693 l 0.245952,0.83004 -0.731854,0.29868 c -0.807406,0.32951 -5.341145,1.9288 -7.774939,2.74265 -2.797818,0.93557 -3.49171,1.49604 -3.49171,2.82033 0,1.28119 1.029294,2.47961 2.131082,2.48122 0.403264,6e-4 3.842055,-1.17809 9.279615,-3.18071 1.066026,-0.39261 2.022165,-0.71384 2.124744,-0.71384 0.14575,0 0.734687,1.34856 1.029489,2.35737 0.05561,0.19026 -1.312052,0.73238 -7.305659,2.89588 -1.509402,0.54485 -3.02322,1.09609 -3.364056,1.22497 -0.689194,0.26062 -2.303564,0.29877 -3.056792,0.0722 z m 15.185084,-6.57784 c -1.154974,-0.63173 -1.042122,-1.96951 0.197931,-2.34643 1.481932,-0.45043 2.29087,1.70069 0.863785,2.29696 -0.711323,0.29721 -0.616814,0.2928 -1.061716,0.0495 z m 22.840142,-0.50405 c -1.0673,-0.16052 -2.20833,-0.4707 -2.55708,-0.69513 -0.20972,-0.13495 -0.13547,-0.33274 0.41549,-1.10664 0.36896,-0.51827 1.11082,-1.61955 1.64857,-2.44728 0.53776,-0.82774 1.15899,-1.78384 1.38051,-2.12467 1.33313,-2.05107 6.35772,-10.78949 9.18807,-15.97924 1.04891,-1.92327 1.94301,-3.49685 1.98689,-3.49685 0.0439,0 0.85351,0.50524 1.79913,1.12276 0.9456,0.61752 2.22109,1.39435 2.8344,1.72629 0.99638,0.53928 1.10589,0.65205 1.02871,1.05934 -0.0476,0.2507 -0.61439,1.80437 -1.25972,3.45258 -4.7209,12.05757 -7.25908,16.22673 -10.86362,17.84436 -1.68876,0.75787 -3.4784,0.96378 -5.60135,0.64448 z m 144.51524,-0.007 c -2.75904,-0.46387 -5.51345,-2.89869 -7.60327,-6.72108 -0.82127,-1.50213 -1.77438,-3.40684 -2.25924,-4.5149 -0.21306,-0.48691 -0.61526,-1.40316 -0.89379,-2.03614 -0.52454,-1.19208 -2.1339,-5.24753 -2.88077,-7.25927 -0.23499,-0.63297 -0.48299,-1.28038 -0.55111,-1.43869 -0.096,-0.22308 0.14737,-0.43537 1.08178,-0.94371 0.66309,-0.36073 1.98408,-1.17903 2.93555,-1.81843 0.95146,-0.63941 1.76449,-1.128 1.80672,-1.08577 0.0422,0.0422 1.16364,2.06567 2.49198,4.49652 1.32836,2.43084 2.85615,5.17663 3.3951,6.10174 1.46898,2.52156 3.4485,5.85805 3.85232,6.49313 0.19646,0.30897 0.63607,1.02551 0.9769,1.59231 0.34083,0.56678 1.42963,2.23732 2.41958,3.71227 l 1.79987,2.68175 -0.9146,0.27752 c -2.04097,0.6193 -3.84709,0.76704 -5.65702,0.46275 z M 78.605546,175.97787 c -0.201833,-0.25658 -0.366962,-0.6063 -0.366962,-0.77713 0,-0.48849 0.56666,-1.04676 1.183388,-1.16585 0.454685,-0.0878 0.651559,-0.021 1.018065,0.34553 0.589171,0.58917 0.5846,1.22761 -0.01211,1.69701 -0.652864,0.51353 -1.370954,0.47431 -1.822353,-0.0996 z m 211.302704,-3.05961 c -3.18935,-0.8302 -5.30221,-1.46481 -5.89883,-1.7717 -1.53601,-0.79014 -2.42537,-2.40464 -2.39715,-4.35169 0.043,-2.96641 1.68816,-5.20909 4.13518,-5.63704 0.58802,-0.10283 1.85592,0.0862 2.07977,0.30999 0.0573,0.0573 -0.0419,0.69037 -0.22031,1.40689 l -0.3244,1.30278 -0.73883,-0.0833 c -0.63247,-0.0712 -0.82607,-0.007 -1.34483,0.4488 -1.21262,1.0647 -1.32127,2.53967 -0.26264,3.56574 0.52204,0.50599 1.01888,0.69738 3.76058,1.44868 3.29362,0.90256 4.10549,1.0101 4.83578,0.64057 1.26749,-0.64136 1.6994,-2.8236 0.7578,-3.8288 -0.57373,-0.61248 -2.23156,-1.16493 -2.50544,-0.83492 -0.0926,0.11164 -0.26486,0.60028 -0.38268,1.08589 -0.11783,0.48561 -0.27385,0.9494 -0.34671,1.03063 -0.16654,0.18567 -2.29816,-0.3991 -2.29816,-0.63046 0,-0.0938 0.15937,-0.72067 0.35412,-1.39311 1.18535,-4.09254 1.02287,-3.71717 1.55492,-3.59264 1.91609,0.44848 4.30526,1.22702 4.84901,1.58012 1.44482,0.93825 1.99778,2.23412 1.88339,4.41367 -0.11399,2.17184 -0.96572,3.69513 -2.60524,4.65938 -1.03057,0.60609 -3.07235,0.70244 -4.88533,0.2305 z M 94.577461,169.81292 c -1.278579,-0.23794 -3.421506,-0.99268 -3.971455,-1.39875 -0.255535,-0.18869 0.07642,-0.59188 2.65583,-3.22578 1.621322,-1.65558 4.111971,-4.32177 5.534766,-5.92486 5.232668,-5.89575 7.003468,-7.90867 8.289028,-9.42241 0.72323,-0.85158 1.38149,-1.54832 1.46282,-1.54832 0.0813,0 0.88391,0.70931 1.78353,1.57622 0.89961,0.86693 1.97016,1.84295 2.379,2.16894 0.40884,0.32598 0.74745,0.64828 0.75249,0.71623 0.0211,0.28465 -4.43983,7.11732 -6.3349,9.70304 -1.52234,2.07718 -3.5512,4.35863 -4.62581,5.20174 -2.49175,1.95497 -5.134668,2.67326 -7.925299,2.15395 z m 162.766779,0.0677 c -2.88405,-0.43705 -5.78351,-2.71684 -9.08148,-7.14059 -2.21281,-2.96817 -6.6034,-9.58511 -6.59043,-9.93225 0.003,-0.0974 0.34112,-0.44403 0.74996,-0.77035 0.40884,-0.32629 1.48941,-1.2824 2.40126,-2.12466 0.91185,-0.84225 1.71414,-1.55314 1.78287,-1.57974 0.0688,-0.0266 1.31298,1.32787 2.76502,3.00994 6.20233,7.18493 10.55055,11.92137 13.95102,15.1966 l 1.75673,1.69203 -1.28584,0.57495 c -2.24119,1.00211 -4.47214,1.37368 -6.44911,1.07407 z M 64.642548,168.16726 c -0.205012,-0.85208 -0.425796,-1.84889 -0.490641,-2.21514 -0.06484,-0.36626 -0.171987,-0.69935 -0.238096,-0.74021 -0.06612,-0.0409 -1.573977,0.2263 -3.350819,0.59368 -1.776834,0.36739 -3.256812,0.6208 -3.288826,0.56314 -0.190945,-0.3438 -0.479298,-2.54363 -0.348973,-2.66228 0.0854,-0.0778 2.545521,-0.63601 5.466938,-1.24054 10.613269,-2.19625 10.003627,-2.10485 10.003627,-1.49989 0,0.29718 0.783041,3.66553 1.431348,6.15713 0.198975,0.76471 0.336781,1.41251 0.306226,1.43953 -0.07671,0.0679 -2.51658,0.61355 -2.546692,0.5696 -0.01338,-0.0195 -0.285743,-1.19076 -0.605292,-2.60278 -0.319543,-1.41201 -0.629992,-2.61924 -0.689884,-2.6827 -0.112082,-0.11878 -3.465384,0.57998 -3.644934,0.75953 -0.05514,0.0551 0.12981,1.0699 0.411075,2.25498 0.281258,1.18506 0.461296,2.18562 0.400079,2.22345 -0.112256,0.0693 -2.21582,0.63174 -2.363088,0.63174 -0.04363,0 -0.247037,-0.69716 -0.452048,-1.54924 z m 21.756944,-9.24808 c -1.752101,-0.47471 -4.796858,-2.15793 -4.796858,-2.65184 0,-0.0836 0.691302,-0.52575 1.536236,-0.98261 0.844926,-0.45684 1.74127,-0.97259 1.991873,-1.14611 0.250604,-0.17351 1.41174,-0.94219 2.580306,-1.70817 3.754887,-2.46127 12.412011,-8.67106 14.500691,-10.40141 l 0.86744,-0.71862 0.28343,0.43429 c 0.15588,0.23886 0.76147,1.06082 1.34576,1.82659 0.58428,0.76577 1.29766,1.70593 1.58531,2.08921 l 0.52296,0.69692 -2.82469,2.84163 c -8.526668,8.57774 -12.896824,10.99233 -17.592458,9.72012 z m 178.809538,0.2402 c -2.41461,-0.46541 -5.27935,-2.08908 -8.58542,-4.86599 -2.17121,-1.82371 -8.23484,-7.73896 -8.23484,-8.03334 0,-0.11775 0.16793,-0.36587 0.37319,-0.55138 0.20524,-0.1855 1.0495,-1.22857 1.87611,-2.31792 l 1.50294,-1.98064 0.64692,0.4775 c 0.35581,0.26262 1.76237,1.30642 3.12569,2.31957 1.36333,1.01314 2.93064,2.1676 3.48291,2.56547 0.55228,0.39787 1.54811,1.12178 2.21296,1.60867 2.14465,1.57062 8.61343,5.81429 10.38114,6.81027 0.94438,0.53209 1.71705,1.026 1.71705,1.09758 0,0.3814 -2.6015,1.91341 -4.1592,2.44934 -1.02078,0.3512 -3.46902,0.58865 -4.33945,0.42087 z m -144.21158,-4.29174 c -0.58428,-0.2789 -1.55784,-0.87442 -2.16348,-1.32341 l -1.10115,-0.81631 0.5444,-1.19949 c 1.07559,-2.36987 2.65914,-6.76617 2.51891,-6.99306 -0.22277,-0.36046 -0.61359,0.0163 -1.92334,1.85417 -0.77904,1.09317 -1.78025,2.36697 -2.2249,2.83069 -0.75566,0.78806 -0.86686,0.84312 -1.70242,0.84312 -0.6401,0 -1.03899,-0.10853 -1.40473,-0.38224 -0.72426,-0.54198 -3.07809,-2.8563 -3.07809,-3.02641 0,-0.0781 0.46685,-0.75733 1.03744,-1.50941 0.86715,-1.14296 2.06513,-2.92677 3.32959,-4.95778 0.26267,-0.42188 0.18666,-0.74987 -0.17241,-0.74409 -0.11597,0.002 -0.52956,0.28757 -0.91908,0.63489 -2.12451,1.8943 -3.65166,3.10716 -4.2017,3.33697 -1.21794,0.50888 -2.60041,-0.30529 -3.99808,-2.35457 -1.17476,-1.72248 -1.17315,-1.71594 -0.51782,-2.11117 0.86233,-0.52008 4.6399,-3.83781 5.09092,-4.47123 0.59213,-0.83156 0.23761,-1.03036 -0.82784,-0.46421 -2.67767,1.42283 -4.75336,2.15093 -5.65154,1.98242 -0.33736,-0.0633 -0.87575,-0.34543 -1.19642,-0.62699 -0.61927,-0.54373 -1.83311,-2.92975 -1.92332,-3.78064 -0.0495,-0.46717 0.0166,-0.52608 0.92044,-0.82007 1.07902,-0.35096 2.7387,-1.04843 4.83402,-2.03148 1.2779,-0.59955 1.74834,-1.01067 1.47234,-1.28668 -0.0613,-0.0613 -1.1268,0.0597 -2.36786,0.26875 -4.26458,0.71843 -4.73552,0.69596 -5.7528,-0.27451 -0.63572,-0.60647 -1.199095,-2.14187 -1.321461,-3.60147 l -0.09784,-1.16702 2.065351,-0.11796 c 1.99542,-0.11398 5.51964,-0.54303 6.17885,-0.75225 0.17847,-0.0567 0.29618,-0.23292 0.26488,-0.39668 -0.0436,-0.22839 -0.35468,-0.32519 -1.38224,-0.43016 -3.15966,-0.32278 -5.441818,-0.70047 -6.0179,-0.99596 -0.992522,-0.50911 -1.587061,-1.87399 -1.589544,-3.64909 -0.0027,-1.78521 0.252338,-2.7988 0.670685,-2.66767 1.766229,0.55365 6.343119,1.4663 7.646969,1.52485 0.93374,0.042 1.06233,0.0127 1.06233,-0.24136 0,-0.12833 -0.65732,-0.5005 -1.4607,-0.82703 -3.06963,-1.24765 -10.362265,-4.85095 -12.349619,-6.10196 -0.34083,-0.21455 -1.615629,-0.97908 -2.832884,-1.69896 C 82.27407,101.48377 76.775224,96.620618 74.449089,92.166257 73.077713,89.540185 72.499022,86.345822 72.909481,83.6676 c 0.194458,-1.268868 0.989678,-4.012208 1.245066,-4.295247 0.06672,-0.07395 0.762396,0.722801 1.545939,1.770552 2.165284,2.895412 4.501765,5.520278 7.56905,8.503273 5.187127,5.044588 10.560909,9.374132 15.418941,12.422702 0.681666,0.42777 1.518253,0.95506 1.859083,1.17176 1.02928,0.65441 4.03462,2.25741 6.22953,3.32274 2.3147,1.12345 3.68531,1.66858 6.1961,2.46437 1.40503,0.44532 1.73196,0.61564 1.81472,0.94539 0.0555,0.22122 -0.0962,1.22509 -0.33713,2.23083 -1.67425,6.98848 -0.67176,13.23314 3.00689,18.73044 1.03508,1.5468 3.44429,4.05161 4.95623,5.15289 1.079,0.78594 4.97386,2.85984 5.72065,3.04609 0.47313,0.11799 0.46478,0.23461 -0.23102,3.22805 -0.22636,0.97381 -0.54149,2.64698 -0.70031,3.71817 -0.3758,2.53461 -1.9558,7.47626 -2.72283,8.51594 -0.68097,0.92304 -1.91694,1.0196 -3.48294,0.27209 z m 110.066,0.22244 c -0.45568,-0.31916 -1.4298,-2.33559 -1.88537,-3.90271 -0.16482,-0.56695 -0.40613,-1.23671 -0.53626,-1.48836 -0.18691,-0.36141 -1.85381,-9.6113 -1.85381,-10.287 0,-0.0921 0.24565,-0.25308 0.54589,-0.35774 1.12017,-0.3905 3.65577,-1.71643 4.85431,-2.53846 1.95169,-1.33857 2.8789,-2.17885 4.32219,-3.91697 4.62431,-5.56899 6.06509,-12.00533 4.44745,-19.86787 -0.28056,-1.3637 -0.46916,-2.63605 -0.41911,-2.82744 0.0654,-0.2501 0.39793,-0.43334 1.18189,-0.65129 3.07881,-0.856 8.68902,-3.44157 12.87056,-5.93165 7.15871,-4.262953 15.72427,-11.175887 22.56235,-18.209201 l 1.58676,-1.632077 0.34705,0.669574 c 0.61068,1.178288 1.18837,3.454998 1.29337,5.097314 0.12481,1.951946 -0.34654,4.076229 -1.22943,5.540829 -0.67075,1.112701 -3.81818,4.218104 -5.97616,5.896371 -2.78864,2.16873 -7.93471,5.50976 -12.63132,8.20077 -2.20315,1.26233 -8.42341,4.24143 -11.31402,5.41866 -0.96944,0.39481 -1.27844,0.75166 -0.79675,0.92015 0.55891,0.19549 7.02351,-0.98033 8.47242,-1.54103 0.22783,-0.0882 0.32361,0.0893 0.48691,0.90245 0.2777,1.38281 0.25543,2.24901 -0.0894,3.47808 -0.55001,1.96026 -1.43096,2.35122 -6.31785,2.80381 -1.63531,0.15146 -2.29938,0.28004 -2.36786,0.45846 -0.0523,0.13638 -0.0516,0.29144 0.001,0.34457 0.29581,0.29581 5.3227,0.94565 7.33919,0.94875 l 1.10659,0.002 -0.004,0.66395 c -0.01,1.46017 -0.6358,3.33371 -1.39179,4.16362 -0.85971,0.94379 -1.57345,0.97865 -5.62338,0.27468 -2.17532,-0.37812 -2.78925,-0.3579 -2.6188,0.0863 0.14565,0.37955 4.97464,2.55979 7.11561,3.21262 0.48028,0.14646 0.42588,0.48109 -0.36056,2.21786 -1.12704,2.48899 -2.11043,3.13133 -3.9927,2.60801 -0.5663,-0.15744 -1.95015,-0.71878 -3.0752,-1.24742 -2.4573,-1.15461 -2.96029,-1.10744 -1.73385,0.16259 1.20029,1.24295 3.66184,3.37648 4.52928,3.9257 0.42283,0.26773 0.77171,0.55948 0.77526,0.64834 0.0214,0.53394 -2.11505,3.32348 -2.93585,3.83336 -1.30627,0.81145 -2.27898,0.40529 -5.27432,-2.2023 -0.96476,-0.83986 -1.8611,-1.52704 -1.99187,-1.52704 -0.29159,0 -0.3069,0.42322 -0.034,0.94118 0.43039,0.81704 2.2073,3.45547 3.19245,4.74026 0.56662,0.73897 1.03022,1.4282 1.03022,1.53161 0,0.23115 -2.40531,2.60083 -3.11445,3.06831 -0.57838,0.38129 -1.83188,0.45519 -2.41624,0.14245 -0.4478,-0.23966 -0.8541,-0.71341 -2.53675,-2.95787 -1.98215,-2.64396 -1.96677,-2.6274 -2.21521,-2.38417 -0.17133,0.16774 -0.11269,0.50485 0.27721,1.59351 0.77019,2.15042 1.67658,4.47728 2.14344,5.50253 0.23412,0.51413 0.42568,0.99508 0.42568,1.0688 0,0.22031 -1.66813,1.39735 -2.92648,2.06491 -1.32589,0.7034 -2.54223,0.83032 -3.24436,0.33854 z M 79.760981,148.27762 c -1.827277,-0.44885 -3.115801,-1.19655 -4.541166,-2.63514 -0.949869,-0.95867 -2.469951,-3.05982 -2.469951,-3.41411 0,-0.0478 0.496777,-0.14297 1.103943,-0.21167 3.156079,-0.35706 13.17923,-3.39074 23.393791,-7.08052 0.960368,-0.34691 1.77624,-0.63075 1.813044,-0.63075 0.0368,0 0.419768,0.70257 0.851031,1.56125 0.431267,0.8587 1.021777,1.96435 1.312257,2.45699 l 0.52813,0.89573 -0.82357,0.5896 c -5.21789,3.73553 -11.248724,7.05739 -14.722413,8.1093 -0.940426,0.28478 -3.682116,0.73026 -4.405317,0.71579 -0.352421,-0.007 -1.270323,-0.16746 -2.039779,-0.35647 z m 191.500369,0.0944 c -1.54961,-0.28302 -2.17774,-0.47121 -3.92765,-1.17678 -2.03802,-0.82171 -4.82506,-2.24711 -7.22884,-3.69707 -2.85271,-1.72076 -3.02734,-1.83138 -4.9331,-3.1253 l -1.62503,-1.1033 0.89697,-1.72958 c 0.49334,-0.95127 1.08711,-2.06496 1.31951,-2.47489 l 0.42252,-0.74533 3.05095,1.07582 c 10.9427,3.85856 19.19024,6.30019 22.4226,6.63805 0.59302,0.062 1.07822,0.18703 1.07822,0.27789 0,0.47338 -1.52282,2.66415 -2.50545,3.60442 -1.37745,1.31807 -2.9851,2.13528 -4.85664,2.46878 -1.686,0.30042 -2.41179,0.29818 -4.11406,-0.0127 z M 59.909632,144.74116 c -0.849048,-0.24705 -1.794662,-1.23118 -2.032811,-2.1156 -0.5243,-1.94711 0.527854,-3.66941 2.53007,-4.14155 1.146194,-0.27029 2.960089,0.66857 3.420468,1.77042 0.314102,0.75176 0.316552,2.03997 0.0054,2.78493 -0.307912,0.73693 -1.177425,1.47013 -2.021442,1.70454 -0.765682,0.21265 -1.163346,0.21207 -1.901571,-0.003 z m 232.477398,4.8e-4 c -0.82704,-0.24161 -1.78746,-1.28892 -2.01665,-2.19906 -0.43844,-1.74121 0.44405,-3.34756 2.1504,-3.91432 0.74158,-0.24632 0.98628,-0.25564 1.67177,-0.0637 1.56329,0.43769 2.35528,1.47628 2.35528,3.08866 0,1.13569 -0.28759,1.79971 -1.06148,2.45089 -0.86594,0.72865 -1.99351,0.96058 -3.09932,0.63753 z M 76.713792,135.90138 c -4.33018,-0.611 -6.935741,-2.90187 -8.486632,-7.46169 l -0.426056,-1.25266 0.393983,0.0964 c 2.10345,0.51472 14.883797,0.57961 22.614424,0.11482 1.704162,-0.10246 3.726655,-0.20367 4.494431,-0.22493 l 1.395955,-0.0386 0.400909,1.41644 c 0.220496,0.77904 0.525003,1.73514 0.676673,2.12466 0.479994,1.23274 0.513179,1.20167 -2.143207,2.00631 -8.194303,2.48211 -15.425324,3.71245 -18.92048,3.21928 z m 51.542938,-0.26479 c -2.29715,-0.87589 -4.45992,-2.31222 -6.38426,-4.23987 -2.51854,-2.52287 -4.17235,-5.55634 -4.84848,-8.89329 -0.60097,-2.96591 -0.44237,-5.43377 0.62037,-9.65379 0.24977,-0.99175 0.43095,-2.22289 0.42995,-2.92141 -0.004,-2.8966 -1.91258,-4.87921 -5.61237,-5.83052 -1.49225,-0.38369 -2.04192,-0.43802 -3.94688,-0.39005 -2.20724,0.0555 -2.21336,0.0546 -2.27214,-0.36066 -0.22835,-1.61328 1.52422,-3.05468 4.47411,-3.679735 0.9488,-0.201043 1.38699,-0.40372 1.92636,-0.891014 0.9082,-0.820509 2.17108,-1.380992 3.92768,-1.743168 1.62091,-0.334191 2.81296,-0.262561 4.91032,0.295057 1.81153,0.481626 3.17163,1.309302 4.50988,2.74445 1.5176,1.62748 2.09224,3.16133 2.07923,5.54987 -0.008,1.45107 -0.11609,2.04671 -0.7879,4.33786 -0.70684,2.41063 -0.7781,2.82747 -0.77184,4.5149 0.008,2.14037 0.40922,3.72616 1.45271,5.74072 0.74612,1.44046 2.91934,3.75949 4.06497,4.33773 0.84225,0.42512 0.83194,0.30424 0.18238,2.13837 -0.50559,1.42765 -1.30674,4.00152 -2.12176,6.81663 -0.39471,1.36333 -0.72943,2.49098 -0.74383,2.50588 -0.0144,0.0149 -0.50423,-0.15517 -1.0885,-0.37796 z m 97.05868,-2.09889 c -0.57188,-2.27919 -1.14592,-4.42151 -2.01787,-7.53054 l -0.31621,-1.12752 0.61969,-0.45445 c 0.34084,-0.24995 1.19726,-1.03888 1.90316,-1.7532 1.71142,-1.73177 2.55917,-3.40295 3.08933,-6.09 0.38496,-1.95111 0.38589,-1.99604 0.0783,-3.81429 -0.17122,-1.01195 -0.54456,-2.5657 -0.82967,-3.45276 -1.28711,-4.00458 -0.63901,-7.33205 1.89225,-9.715316 1.41291,-1.330301 2.94467,-2.062818 5.27438,-2.522294 1.65183,-0.325787 2.05457,-0.348291 3.08096,-0.172182 2.16291,0.37111 3.41681,0.859154 4.38096,1.705145 0.73642,0.646179 1.09599,0.824209 1.99331,0.986922 2.90284,0.526385 5.12991,2.403625 4.4977,3.791205 -0.17454,0.38307 -0.24713,0.39351 -2.27994,0.32797 -5.63476,-0.18168 -9.48898,2.37844 -9.46475,6.28684 0.004,0.70016 0.22346,2.07782 0.5282,3.32114 1.61078,6.57183 0.85479,11.37157 -2.52382,16.0235 -1.99468,2.74644 -5.45313,5.35303 -8.54517,6.44037 l -0.73154,0.25726 z m 49.63166,2.42514 c -4.47667,-0.41092 -8.75774,-1.31589 -15.0497,-3.18137 -1.11987,-0.33204 -2.20941,-0.67825 -2.42119,-0.76939 l -0.38507,-0.1657 0.71494,-2.1788 c 0.39321,-1.19832 0.74715,-2.28854 0.78654,-2.4227 0.0565,-0.19265 0.3593,-0.22066 1.44068,-0.13327 6.60362,0.5336 22.61157,0.75733 25.84697,0.36122 1.66683,-0.20407 1.62467,-0.25047 1.1159,1.22828 -1.28219,3.72678 -3.76036,6.18991 -6.97208,6.92979 -1.19673,0.27568 -3.82073,0.44724 -5.07699,0.33194 z M 81.514107,124.55437 c -6.064019,-0.47863 -9.437216,-1.50396 -11.674277,-3.54851 -1.274784,-1.16508 -2.10948,-2.46217 -2.682048,-4.16783 -0.414467,-1.23466 -0.896782,-4.25455 -0.709437,-4.44191 0.04503,-0.0451 0.977459,0.25652 2.072006,0.67016 5.212794,1.96991 14.702876,4.39425 24.209931,6.18466 1.494632,0.28147 2.75155,0.54581 2.793153,0.58741 0.153264,0.15327 0.641347,4.56739 0.518619,4.69031 -0.185016,0.18531 -12.235819,0.20664 -14.527947,0.0257 z m 178.492923,0.069 -0.86414,-0.0772 0.10591,-0.91889 c 0.0582,-0.50539 0.15867,-1.56296 0.22318,-2.35015 l 0.11728,-1.43127 4.2706,-0.84471 c 9.97766,-1.97358 18.58886,-4.20954 23.23207,-6.03239 0.86598,-0.33997 1.63702,-0.61812 1.71343,-0.61812 0.23777,0 -0.0751,2.31784 -0.52524,3.89046 -0.59115,2.06558 -1.31794,3.34339 -2.60399,4.57833 -3.0164,2.89649 -7.11392,3.75744 -18.25391,3.83535 -3.60308,0.0253 -6.93991,0.0111 -7.41519,-0.0313 z M 93.642402,116.85813 c -9.25133,-1.9595 -17.747112,-5.0024 -21.185353,-7.58787 -3.321764,-2.49788 -4.822365,-5.55802 -4.610515,-9.402093 0.04832,-0.876424 0.183504,-2.018912 0.300444,-2.538855 l 0.212635,-0.945366 0.468837,0.441215 c 0.52853,0.497385 4.888782,3.387049 6.709871,4.446819 2.970233,1.7285 11.782399,6.49744 18.54672,10.03703 l 1.947604,1.01914 -0.01218,0.76369 c -0.02035,1.27827 -0.298236,4.04674 -0.412017,4.10515 -0.05882,0.0302 -0.943559,-0.12229 -1.966054,-0.33886 z m 165.753348,-1.63045 c -0.12259,-1.1442 -0.23914,-2.23972 -0.25901,-2.43448 -0.029,-0.28383 0.36796,-0.56607 2.00002,-1.42218 14.23563,-7.46746 20.8117,-11.20886 24.46257,-13.917776 1.57583,-1.169247 1.43626,-1.288972 1.7471,1.498681 0.2911,2.610505 -0.0909,4.789085 -1.18864,6.778525 -0.61128,1.10785 -2.67695,3.18223 -4.0183,4.03523 -2.25879,1.43641 -6.93378,3.4003 -10.99911,4.62054 -0.87642,0.26305 -2.07155,0.62625 -2.65582,0.80709 -1.24479,0.38527 -6.5858,1.68521 -7.61339,1.85302 -0.38952,0.0637 -0.83069,0.14851 -0.98037,0.18869 -0.22487,0.0604 -0.31089,-0.28848 -0.49505,-2.00734 z M 91.980278,93.334307 l -0.68831,-0.589212 1.026075,-1.75012 c 3.689006,-6.292157 7.809847,-11.818385 13.121567,-17.596581 2.23513,-2.431416 3.28888,-3.467315 6.90226,-6.785304 3.76064,-3.453205 10.97338,-8.669111 16.62308,-12.020995 1.60317,-0.95114 6.31166,-3.359479 8.41012,-4.301685 1.0225,-0.459095 2.27244,-1.024858 2.77766,-1.257246 0.50522,-0.232388 0.97123,-0.422523 1.03557,-0.422523 0.0644,0 0.36807,-0.116258 0.67492,-0.258353 3.22577,-1.493716 11.24048,-3.889019 16.84702,-5.034952 16.87295,-3.448701 33.23981,-2.406813 49.88245,3.175439 17.95459,6.022295 33.77576,17.131036 46.01023,32.305805 2.31584,2.872405 5.49181,7.371133 7.15793,10.139151 1.59857,2.655777 2.18944,3.669854 2.19918,3.774327 0.005,0.05674 -0.29938,0.351476 -0.67706,0.654972 l -0.68665,0.551824 -1.29073,-2.15995 c -7.81645,-13.080395 -17.92376,-23.769634 -30.4453,-32.1982 -2.14075,-1.440998 -4.7996,-3.080395 -6.63607,-4.091682 -1.70184,-0.937147 -7.98184,-3.978495 -9.56448,-4.631995 -0.87643,-0.361889 -1.75286,-0.730175 -1.94762,-0.818414 -0.43832,-0.19858 -2.34544,-0.903247 -4.33786,-1.602793 -7.07943,-2.485636 -15.85663,-4.279676 -24.1495,-4.936112 -2.85958,-0.226353 -9.58285,-0.227497 -12.48163,-0.002 -9.86658,0.767107 -19.354,2.853548 -27.90554,6.136893 -3.22362,1.237699 -3.86395,1.523079 -8.49865,3.78765 -6.25687,3.057167 -11.93305,6.657673 -17.52849,11.118645 -9.77679,7.794562 -17.36305,16.480671 -23.797019,27.24711 -0.712877,1.192911 -1.3071,2.16594 -1.32049,2.162279 -0.01338,-0.0034 -0.334091,-0.27179 -0.712663,-0.595857 z M 263.22379,82.909916 c -0.73383,-0.982653 -1.24693,-1.91199 -1.12368,-2.035242 0.0652,-0.06518 0.90515,-0.678446 1.86663,-1.362862 7.08907,-5.046201 9.75709,-7.055351 9.67009,-7.282064 -0.052,-0.135677 -0.50135,-0.849374 -0.99841,-1.585987 -0.68111,-1.009352 -0.8566,-1.396094 -0.71236,-1.569889 0.23194,-0.279458 2.31405,-1.579706 2.3892,-1.492015 0.0294,0.03427 1.37877,2.042514 2.99875,4.462861 l 2.94543,4.400624 -0.39872,0.304741 c -0.61342,0.468818 -2.04668,1.428805 -2.13323,1.428805 -0.0424,0 -0.50615,-0.673891 -1.03043,-1.497537 -0.52428,-0.823647 -1.04307,-1.50089 -1.15288,-1.504972 -0.23195,-0.0087 -1.40703,0.798747 -6.81802,4.684534 -2.16964,1.558083 -4.19944,3.009815 -4.51067,3.226055 l -0.56586,0.393174 z M 94.450142,76.184447 c -1.369181,-2.129543 -4.587193,-7.045597 -7.118247,-10.874308 -1.106103,-1.673199 -2.009972,-3.10735 -2.008594,-3.186996 0.0013,-0.07966 0.411375,-0.608672 0.911096,-1.175606 0.758515,-0.860519 0.978731,-1.01318 1.333205,-0.924211 0.233532,0.05862 2.313381,1.030097 4.621877,2.158859 4.712926,2.304414 9.769881,4.751397 11.102441,5.372294 0.4869,0.226868 0.91212,0.433084 0.94493,0.458253 0.0328,0.02516 -0.41929,0.549053 -1.00468,1.164188 l -1.06435,1.11843 -1.4489,-0.705938 -1.448909,-0.705937 -0.467821,0.55155 c -0.257301,0.303355 -1.005632,1.148944 -1.662946,1.8791 -0.657321,0.730151 -1.195125,1.430541 -1.195125,1.556422 0,0.125873 0.370655,0.771337 0.82368,1.434359 0.919006,1.345009 0.954894,1.080106 -0.362933,2.678856 -0.381281,0.462562 -0.74052,0.839862 -0.798312,0.83845 -0.05782,-0.0013 -0.578176,-0.738407 -1.156412,-1.637765 z m 0.942795,-7.318209 c 0.621962,-0.726662 1.100008,-1.348283 1.062333,-1.38138 -0.03768,-0.03312 -1.343311,-0.71732 -2.901395,-1.520497 -1.558091,-0.803183 -2.908582,-1.530648 -3.00109,-1.616592 -0.22316,-0.207313 -0.451492,-0.198567 -0.451492,0.01726 0,0.09545 0.418294,0.770058 0.929538,1.499123 0.511251,0.72907 1.398471,2.005448 1.971601,2.836396 0.573137,0.830948 1.091021,1.505426 1.150859,1.498835 0.05983,-0.0067 0.617679,-0.606516 1.239646,-1.333178 z m 160.171133,3.539774 c -1.26847,-0.404537 -3.15141,-2.338714 -3.53534,-3.631526 -0.48634,-1.637699 -0.25673,-3.499814 0.58634,-4.755119 0.265,-0.394579 1.83266,-2.004124 3.48368,-3.57677 1.65103,-1.572646 3.77837,-3.614626 4.72743,-4.537734 l 1.72558,-1.678371 1.05501,1.131553 1.05502,1.131559 -1.18847,1.150858 c -0.65365,0.632977 -2.79991,2.69101 -4.76946,4.573409 -2.88502,2.757365 -3.61552,3.550725 -3.75858,4.082038 -0.17955,0.666777 -0.0676,1.367254 0.34051,2.129723 0.48248,0.901514 2.13883,1.370726 3.07398,0.870791 0.2127,-0.113707 2.44163,-2.185259 4.95316,-4.603434 2.51152,-2.418182 4.63646,-4.396696 4.72206,-4.396696 0.21596,0 1.96999,1.989749 1.91074,2.167512 -0.0265,0.07939 -2.15874,2.176713 -4.73839,4.66071 -3.39757,3.271588 -4.94621,4.642163 -5.61886,4.972794 -1.17543,0.577755 -2.79195,0.701755 -4.02441,0.308703 z M 105.82422,61.854291 c -2.25113,-2.595791 -7.496824,-8.782913 -8.283726,-9.770384 -0.24187,-0.303522 -0.580491,-0.706305 -0.752486,-0.895082 -0.172,-0.188777 -0.312724,-0.395348 -0.312724,-0.459041 0,-0.178807 2.157655,-1.961564 2.304675,-1.904235 0.113923,0.04443 3.724231,4.332241 8.053071,9.564281 0.77904,0.941591 1.48545,1.715905 1.56979,1.720697 0.0844,0.0047 0.68192,-0.452912 1.32792,-1.017122 0.64601,-0.564203 1.62395,-1.403001 2.1732,-1.863989 l 0.99865,-0.838162 0.9047,1.082729 c 0.49758,0.595495 0.9047,1.150831 0.9047,1.234078 0,0.148586 -6.24863,5.521142 -6.54224,5.625007 -0.0825,0.02917 -1.13794,-1.086289 -2.34553,-2.478777 z m 136.79073,-1.4152 c -0.47616,-0.393576 -1.01484,-0.820081 -1.19705,-0.947795 -0.3087,-0.216361 -0.21208,-0.376136 1.41643,-2.34235 0.96126,-1.160582 2.34532,-2.850476 3.07566,-3.755316 0.73036,-0.904846 2.02508,-2.487462 2.87715,-3.516924 0.85208,-1.029469 1.54869,-1.954584 1.54804,-2.055812 -6.8e-4,-0.101234 -0.25962,-0.363541 -0.57544,-0.58292 -0.31583,-0.219373 -0.95422,-0.737262 -1.41867,-1.150859 l -0.84445,-0.751997 0.64178,-0.796746 c 0.35297,-0.438216 0.79051,-0.983937 0.97229,-1.212718 0.27847,-0.350459 0.36921,-0.378344 0.57616,-0.177053 0.1351,0.131401 1.18306,0.995822 2.32883,1.920937 1.78303,1.439673 5.52767,4.511314 5.73585,4.704984 0.0371,0.03446 -0.35792,0.56352 -0.8777,1.175678 -0.51976,0.612164 -0.96489,1.142742 -0.98916,1.179065 -0.0243,0.03634 -0.54557,-0.347274 -1.15844,-0.852442 -0.61287,-0.505168 -1.25467,-1.032855 -1.4262,-1.17264 -0.38857,-0.316659 -0.48478,-0.317209 -0.73094,-0.004 -0.34515,0.438865 -6.16228,7.525908 -7.65241,9.322966 l -1.43596,1.731731 z M 118.54927,55.294479 c -0.13373,-0.219105 -0.94464,-1.553662 -1.80202,-2.965677 -1.53527,-2.528456 -4.0327,-6.612229 -5.84701,-9.560988 -1.54072,-2.504078 -1.56022,-2.156551 0.18416,-3.281859 l 1.51944,-0.98021 0.49986,0.40475 c 0.27493,0.222604 2.14106,1.818973 4.14698,3.547473 2.00592,1.728506 3.73082,3.142736 3.83311,3.142736 0.1023,0 0.14639,-0.179268 0.098,-0.398379 -0.25197,-1.14044 -1.03106,-4.468888 -1.33654,-5.710033 -1.05285,-4.277448 -1.10018,-4.579322 -0.75774,-4.832306 0.51223,-0.378411 2.90085,-1.672856 2.96064,-1.604437 0.0584,0.06677 3.30909,5.454887 4.3495,7.209311 0.34083,0.574743 1.56514,2.612011 2.72066,4.527268 1.15553,1.915262 2.0718,3.506391 2.03614,3.535848 -0.2373,0.196052 -2.4824,1.37315 -2.51975,1.321093 -0.22646,-0.315662 -2.16794,-3.500991 -3.74408,-6.142809 -1.06491,-1.784911 -1.96557,-3.157136 -2.00149,-3.049377 -0.058,0.174061 1.05047,5.498797 1.64999,7.925867 l 0.22798,0.922974 -0.86722,0.556494 c -0.47697,0.306079 -0.96789,0.517876 -1.0909,0.470671 -0.2248,-0.08627 -4.36676,-3.390053 -6.10942,-4.873108 -0.51362,-0.437113 -0.96536,-0.763234 -1.00388,-0.724722 -0.0385,0.03848 0.59506,1.145378 1.40793,2.459705 0.81287,1.314327 1.85949,3.027081 2.32583,3.806127 0.46633,0.779039 1.06967,1.746695 1.34074,2.150341 0.27108,0.403646 0.49287,0.812578 0.49287,0.90874 0,0.167283 -2.11307,1.632887 -2.35424,1.632887 -0.064,0 -0.22579,-0.179269 -0.35953,-0.39838 z m 114.30557,-1.95981 c -0.66568,-0.446414 -1.07,-0.833411 -1.01852,-0.974883 0.047,-0.129033 0.69458,-1.164811 1.43915,-2.301724 0.74456,-1.136913 1.78055,-2.724428 2.30217,-3.527819 0.52163,-0.803391 1.37521,-2.118026 1.89684,-2.921417 0.52164,-0.803384 1.56918,-2.416803 2.32788,-3.585368 0.7587,-1.168566 1.44482,-2.197806 1.52469,-2.2872 0.21314,-0.238541 2.68302,1.445886 2.51867,1.717696 -0.49673,0.821452 -8.73786,13.391587 -9.24615,14.103072 -0.16953,0.237313 -0.38307,0.450931 -0.47452,0.474707 -0.0914,0.02376 -0.66305,-0.289905 -1.27021,-0.697064 z m -10.17456,-5.745795 -1.18631,-0.635264 3.27286,-6.464098 c 1.80008,-3.555258 3.23658,-6.558667 3.19223,-6.674247 -0.0444,-0.11558 -0.76696,-0.546984 -1.60579,-0.958678 -1.72923,-0.848692 -1.70243,-0.760021 -0.75659,-2.504081 l 0.53976,-0.99524 2.05207,1.005414 c 4.03232,1.975623 7.45227,3.733257 7.45227,3.829979 0,0.118865 -1.26731,2.73233 -1.32495,2.73233 -0.0223,0 -0.80066,-0.400149 -1.72966,-0.889219 l -1.6891,-0.88922 -1.78232,3.500787 c -0.98027,1.925428 -2.48245,4.874636 -3.33817,6.553783 -0.85572,1.679154 -1.63554,3.04626 -1.73292,3.038016 -0.0974,-0.0083 -0.71089,-0.300859 -1.36338,-0.650262 z m -86.89881,-1.67378 c -6e-5,-0.124227 -0.15702,-1.620178 -0.34879,-3.324333 -0.19177,-1.704161 -0.47138,-4.572457 -0.62135,-6.373992 -0.14998,-1.801539 -0.34747,-3.793412 -0.43888,-4.426384 -0.0914,-0.632973 -0.22005,-1.835111 -0.28584,-2.671418 l -0.11964,-1.520557 1.27155,-0.471316 c 0.69934,-0.259223 1.3795,-0.471314 1.51145,-0.471314 0.13195,0 0.62128,0.537805 1.08739,1.195123 0.97395,1.373484 3.78848,5.176893 7.47566,10.102208 1.61714,2.160185 2.4971,3.480307 2.39075,3.586654 -0.0925,0.09255 -0.73945,0.355371 -1.43753,0.584032 -1.44721,0.47403 -1.24836,0.570574 -2.41147,-1.170801 -0.374,-0.559934 -0.70011,-1.018065 -0.72471,-1.018065 -0.0246,0 -0.71205,0.267533 -1.52767,0.594525 -0.81563,0.326984 -1.80166,0.695906 -2.19118,0.819819 -1.07443,0.341799 -1.09728,0.383262 -0.94853,1.721546 0.22605,2.033776 0.25986,1.93493 -0.77776,2.274053 -0.51125,0.167089 -1.14865,0.414568 -1.41644,0.549944 -0.38416,0.194204 -0.48692,0.198481 -0.48701,0.02028 z m 5.48882,-8.47914 c 0,-0.288373 -3.98821,-5.685727 -4.03227,-5.456973 -0.0669,0.347178 0.62058,6.319176 0.75184,6.531582 0.10728,0.173567 3.28043,-0.865908 3.28043,-1.074609 z m 68.50598,5.004154 c -1.54607,-0.558543 -2.1807,-1.004883 -2.86107,-2.012187 -0.59615,-0.882617 -0.84121,-1.724826 -0.83896,-2.883238 0.003,-1.326301 0.0792,-1.383538 1.65519,-1.23586 l 1.35105,0.126604 v 0.78474 c 0,1.369935 0.63116,2.109372 2.17951,2.553437 1.08388,0.310856 2.42394,-0.745246 2.42394,-1.910324 0,-0.882688 -0.20468,-1.182746 -2.2101,-3.24001 -2.10253,-2.1569 -2.67761,-3.270246 -2.51502,-4.869022 0.20849,-2.050034 1.34022,-3.842023 2.86603,-4.538137 0.48104,-0.219459 1.1342,-0.32431 2.03614,-0.326856 1.09797,-0.0031 1.51187,0.08359 2.39025,0.500587 2.06646,0.981043 3.32834,3.076262 2.9783,4.945216 l -0.15649,0.835633 -0.70268,-0.04417 c -0.38648,-0.02429 -1.0413,-0.08893 -1.45518,-0.14364 -0.74839,-0.09893 -0.75251,-0.103499 -0.75875,-0.841107 -0.0113,-1.34332 -0.90073,-2.246613 -2.20693,-2.241503 -1.09945,0.0043 -1.85907,0.796847 -1.85907,1.939657 0,0.848795 0.36603,1.372953 2.19662,3.145505 2.37939,2.303946 2.86022,3.429493 2.4061,5.632441 -0.27142,1.316655 -0.55091,1.863307 -1.4531,2.842064 -0.55717,0.604468 -0.96948,0.854724 -1.86272,1.130615 -1.48205,0.457757 -1.97671,0.437106 -3.60306,-0.150445 z m -57.00671,-2.372384 c -0.0776,-0.368038 -1.94427,-9.280271 -2.38272,-11.375808 -0.32599,-1.558087 -0.75096,-3.535139 -0.94437,-4.393449 -0.25542,-1.13351 -0.29522,-1.577691 -0.14539,-1.623151 1.11634,-0.338712 2.82727,-0.637024 2.93924,-0.512471 0.0767,0.0853 0.6838,0.872153 1.34917,1.748577 0.66537,0.876424 1.53291,2.001916 1.92787,2.501093 0.39496,0.499178 1.46668,1.87357 2.38162,3.054205 1.56395,2.018158 2.11928,2.557162 1.89239,1.836762 -0.0536,-0.170415 -0.41251,-1.823669 -0.79741,-3.673898 -0.38492,-1.850229 -0.81878,-3.881938 -0.96415,-4.514911 -0.14535,-0.632973 -0.28985,-1.386154 -0.32109,-1.673737 l -0.0568,-0.522877 1.41219,-0.219111 c 0.77669,-0.12051 1.43935,-0.191943 1.47256,-0.158739 0.0924,0.09244 1.29655,5.803697 1.97993,9.391095 0.18551,0.973804 0.45715,2.288439 0.60365,2.921413 0.21624,0.934259 0.69621,3.567018 0.86923,4.767836 0.0257,0.178546 -0.302,0.318519 -1.11443,0.475985 -0.63297,0.122681 -1.28323,0.227972 -1.44502,0.233974 -0.16519,0.0061 -0.72007,-0.551888 -1.26557,-1.272731 -0.53428,-0.706008 -1.62116,-2.120238 -2.4153,-3.142732 -0.79414,-1.022495 -2.00742,-2.59757 -2.6962,-3.500168 -1.30297,-1.707477 -1.56184,-1.976061 -1.56184,-1.62043 0,0.116579 0.47805,2.500523 1.06233,5.297653 0.58429,2.797131 1.06234,5.163329 1.06234,5.258213 0,0.215692 -2.79906,0.922205 -2.84222,0.717407 z m 46.13224,-0.872651 c -2.22676,-0.366285 -1.9239,-0.09276 -2.56698,-2.318282 -1.46317,-5.063611 -2.86613,-9.615481 -3.00731,-9.757171 -0.0891,-0.08951 -0.20052,0.09893 -0.26151,0.442639 -0.0584,0.32917 -0.30441,1.71394 -0.54668,3.077266 -0.24226,1.363327 -0.61507,3.534467 -0.82846,4.824759 -0.38422,2.323272 -0.39253,2.345983 -0.85795,2.345983 -0.4574,0 -2.30413,-0.310379 -2.39654,-0.402786 -0.0558,-0.05581 0.58053,-4.283576 0.73885,-4.908875 0.13491,-0.532781 0.95898,-5.355563 1.60346,-9.383933 0.25705,-1.606778 0.52747,-2.987911 0.60092,-3.069186 0.0977,-0.108121 2.66722,0.171053 2.95617,0.321185 0.0205,0.01069 0.52097,1.649217 1.11199,3.641173 1.94508,6.555602 2.38369,7.959595 2.48662,7.959595 0.10628,0 0.86949,-4.125644 1.32652,-7.170741 0.40393,-2.691206 0.6085,-3.452579 0.92771,-3.452579 0.31673,0 2.58227,0.375997 2.6587,0.441244 0.0277,0.02361 -0.0334,0.416592 -0.13582,0.873288 -0.15594,0.695801 -1.6249,9.245713 -2.58661,15.054918 -0.14434,0.871929 -0.2794,1.594735 -0.30012,1.606226 -0.0207,0.01151 -0.43605,-0.04463 -0.92296,-0.124723 z m -18.2845,-2.233038 -1.46425,-0.05148 0.0936,-1.364962 c 0.0514,-0.750729 0.17713,-4.74906 0.27924,-8.88518 0.10211,-4.136121 0.20103,-7.534962 0.21981,-7.552979 0.0188,-0.01802 0.7417,0.0117 1.60651,0.06603 l 1.57237,0.09879 -0.1067,1.14259 c -0.0587,0.628425 -0.19931,4.580371 -0.31249,8.782103 -0.1132,4.201732 -0.25487,7.67935 -0.31483,7.72804 -0.06,0.04869 -0.76791,0.06536 -1.57325,0.03704 z"
       id="path1" /></g></svg>
