<svg xmlns="http://www.w3.org/2000/svg" viewBox="0 0 280 48" width="280" height="48">
  <g transform="scale(0.294988)">
    <defs
     id="defs1" /><g
    
    
     id="layer1"
     transform="translate(-66.40674,-63.574748)"><g
       id="g149"
       transform="translate(0.1493879,0.2406772)"><path
         fill="#1a1a1a"
         d="m 259.39575,115.22768 c -0.12259,-1.1442 -0.23914,-2.23972 -0.25901,-2.43448 -0.029,-0.28383 0.36796,-0.56607 2.00002,-1.42218 14.23563,-7.46746 20.8117,-11.20886 24.46257,-13.917776 1.57583,-1.169247 1.43626,-1.288972 1.7471,1.498681 0.2911,2.610505 -0.0909,4.789085 -1.18864,6.778525 -0.61128,1.10785 -2.67695,3.18223 -4.0183,4.03523 -2.25879,1.43641 -6.93378,3.4003 -10.99911,4.62054 -0.87642,0.26305 -2.07155,0.62625 -2.65582,0.80709 -1.24479,0.38527 -6.5858,1.68521 -7.61339,1.85302 -0.38952,0.0637 -0.83069,0.14851 -0.98037,0.18869 -0.22487,0.0604 -0.31089,-0.28848 -0.49505,-2.00734 z"
         id="path134" /><path
         fill="#1a1a1a"
         d="m 93.642402,116.85813 c -9.25133,-1.9595 -17.747112,-5.0024 -21.185353,-7.58787 -3.321764,-2.49788 -4.822365,-5.55802 -4.610515,-9.402093 0.04832,-0.876424 0.183504,-2.018912 0.300444,-2.538855 l 0.212635,-0.945366 0.468837,0.441215 c 0.52853,0.497385 4.888782,3.387049 6.709871,4.446819 2.970233,1.7285 11.782399,6.49744 18.54672,10.03703 l 1.947604,1.01914 -0.01218,0.76369 c -0.02035,1.27827 -0.298236,4.04674 -0.412017,4.10515 -0.05882,0.0302 -0.943559,-0.12229 -1.966054,-0.33886 z"
         id="path133" /><path
         fill="#1a1a1a"
         d="m 260.00703,124.62337 -0.86414,-0.0772 0.10591,-0.91889 c 0.0582,-0.50539 0.15867,-1.56296 0.22318,-2.35015 l 0.11728,-1.43127 4.2706,-0.84471 c 9.97766,-1.97358 18.58886,-4.20954 23.23207,-6.03239 0.86598,-0.33997 1.63702,-0.61812 1.71343,-0.61812 0.23777,0 -0.0751,2.31784 -0.52524,3.89046 -0.59115,2.06558 -1.31794,3.34339 -2.60399,4.57833 -3.0164,2.89649 -7.11392,3.75744 -18.25391,3.83535 -3.60308,0.0253 -6.93991,0.0111 -7.41519,-0.0313 z"
         id="path132" /><path
         fill="#1a1a1a"
         d="m 81.514107,124.55437 c -6.064019,-0.47863 -9.437216,-1.50396 -11.674277,-3.54851 -1.274784,-1.16508 -2.10948,-2.46217 -2.682048,-4.16783 -0.414467,-1.23466 -0.896782,-4.25455 -0.709437,-4.44191 0.04503,-0.0451 0.977459,0.25652 2.072006,0.67016 5.212794,1.96991 14.702876,4.39425 24.209931,6.18466 1.494632,0.28147 2.75155,0.54581 2.793153,0.58741 0.153264,0.15327 0.641347,4.56739 0.518619,4.69031 -0.185016,0.18531 -12.235819,0.20664 -14.527947,0.0257 z"
         id="path131" /><path
         fill="#1a1a1a"
         d="m 274.94707,135.96284 c -4.47667,-0.41092 -8.75774,-1.31589 -15.0497,-3.18137 -1.11987,-0.33204 -2.20941,-0.67825 -2.42119,-0.76939 l -0.38507,-0.1657 0.71494,-2.1788 c 0.39321,-1.19832 0.74715,-2.28854 0.78654,-2.4227 0.0565,-0.19265 0.3593,-0.22066 1.44068,-0.13327 6.60362,0.5336 22.61157,0.75733 25.84697,0.36122 1.66683,-0.20407 1.62467,-0.25047 1.1159,1.22828 -1.28219,3.72678 -3.76036,6.18991 -6.97208,6.92979 -1.19673,0.27568 -3.82073,0.44724 -5.07699,0.33194 z"
         id="path130" /><path
         fill="#1a1a1a"
         d="m 225.31541,133.5377 c -0.57188,-2.27919 -1.14592,-4.42151 -2.01787,-7.53054 l -0.31621,-1.12752 0.61969,-0.45445 c 0.34084,-0.24995 1.19726,-1.03888 1.90316,-1.7532 1.71142,-1.73177 2.55917,-3.40295 3.08933,-6.09 0.38496,-1.95111 0.38589,-1.99604 0.0783,-3.81429 -0.17122,-1.01195 -0.54456,-2.5657 -0.82967,-3.45276 -1.28711,-4.00458 -0.63901,-7.33205 1.89225,-9.715316 1.41291,-1.330301 2.94467,-2.062818 5.27438,-2.522294 1.65183,-0.325787 2.05457,-0.348291 3.08096,-0.172182 2.16291,0.37111 3.41681,0.859154 4.38096,1.705145 0.73642,0.646179 1.09599,0.824209 1.99331,0.986922 2.90284,0.526385 5.12991,2.403625 4.4977,3.791205 -0.17454,0.38307 -0.24713,0.39351 -2.27994,0.32797 -5.63476,-0.18168 -9.48898,2.37844 -9.46475,6.28684 0.004,0.70016 0.22346,2.07782 0.5282,3.32114 1.61078,6.57183 0.85479,11.37157 -2.52382,16.0235 -1.99468,2.74644 -5.45313,5.35303 -8.54517,6.44037 l -0.73154,0.25726 z"
         id="path129" /><path
         fill="#1a1a1a"
         d="m 128.25673,135.63659 c -2.29715,-0.87589 -4.45992,-2.31222 -6.38426,-4.23987 -2.51854,-2.52287 -4.17235,-5.55634 -4.84848,-8.89329 -0.60097,-2.96591 -0.44237,-5.43377 0.62037,-9.65379 0.24977,-0.99175 0.43095,-2.22289 0.42995,-2.92141 -0.004,-2.8966 -1.91258,-4.87921 -5.61237,-5.83052 -1.49225,-0.38369 -2.04192,-0.43802 -3.94688,-0.39005 -2.20724,0.0555 -2.21336,0.0546 -2.27214,-0.36066 -0.22835,-1.61328 1.52422,-3.05468 4.47411,-3.679735 0.9488,-0.201043 1.38699,-0.40372 1.92636,-0.891014 0.9082,-0.820509 2.17108,-1.380992 3.92768,-1.743168 1.62091,-0.334191 2.81296,-0.262561 4.91032,0.295057 1.81153,0.481626 3.17163,1.309302 4.50988,2.74445 1.5176,1.62748 2.09224,3.16133 2.07923,5.54987 -0.008,1.45107 -0.11609,2.04671 -0.7879,4.33786 -0.70684,2.41063 -0.7781,2.82747 -0.77184,4.5149 0.008,2.14037 0.40922,3.72616 1.45271,5.74072 0.74612,1.44046 2.91934,3.75949 4.06497,4.33773 0.84225,0.42512 0.83194,0.30424 0.18238,2.13837 -0.50559,1.42765 -1.30674,4.00152 -2.12176,6.81663 -0.39471,1.36333 -0.72943,2.49098 -0.74383,2.50588 -0.0144,0.0149 -0.50423,-0.15517 -1.0885,-0.37796 z"
         id="path128" /><path
         fill="#1a1a1a"
         d="m 76.713792,135.90138 c -4.33018,-0.611 -6.935741,-2.90187 -8.486632,-7.46169 l -0.426056,-1.25266 0.393983,0.0964 c 2.10345,0.51472 14.883797,0.57961 22.614424,0.11482 1.704162,-0.10246 3.726655,-0.20367 4.494431,-0.22493 l 1.395955,-0.0386 0.400909,1.41644 c 0.220496,0.77904 0.525003,1.73514 0.676673,2.12466 0.479994,1.23274 0.513179,1.20167 -2.143207,2.00631 -8.194303,2.48211 -15.425324,3.71245 -18.92048,3.21928 z"
         id="path127" /><path
         fill="#1a1a1a"
         d="m 271.26135,148.37202 c -1.54961,-0.28302 -2.17774,-0.47121 -3.92765,-1.17678 -2.03802,-0.82171 -4.82506,-2.24711 -7.22884,-3.69707 -2.85271,-1.72076 -3.02734,-1.83138 -4.9331,-3.1253 l -1.62503,-1.1033 0.89697,-1.72958 c 0.49334,-0.95127 1.08711,-2.06496 1.31951,-2.47489 l 0.42252,-0.74533 3.05095,1.07582 c 10.9427,3.85856 19.19024,6.30019 22.4226,6.63805 0.59302,0.062 1.07822,0.18703 1.07822,0.27789 0,0.47338 -1.52282,2.66415 -2.50545,3.60442 -1.37745,1.31807 -2.9851,2.13528 -4.85664,2.46878 -1.686,0.30042 -2.41179,0.29818 -4.11406,-0.0127 z"
         id="path124" /><path
         fill="#1a1a1a"
         d="m 79.760981,148.27762 c -1.827277,-0.44885 -3.115801,-1.19655 -4.541166,-2.63514 -0.949869,-0.95867 -2.469951,-3.05982 -2.469951,-3.41411 0,-0.0478 0.496777,-0.14297 1.103943,-0.21167 3.156079,-0.35706 13.17923,-3.39074 23.393791,-7.08052 0.960368,-0.34691 1.77624,-0.63075 1.813044,-0.63075 0.0368,0 0.419768,0.70257 0.851031,1.56125 0.431267,0.8587 1.021777,1.96435 1.312257,2.45699 l 0.52813,0.89573 -0.82357,0.5896 c -5.21789,3.73553 -11.248724,7.05739 -14.722413,8.1093 -0.940426,0.28478 -3.682116,0.73026 -4.405317,0.71579 -0.352421,-0.007 -1.270323,-0.16746 -2.039779,-0.35647 z"
         id="path123" /><path
         fill="#1a1a1a"
         d="m 231.06345,155.09008 c -0.45568,-0.31916 -1.4298,-2.33559 -1.88537,-3.90271 -0.16482,-0.56695 -0.40613,-1.23671 -0.53626,-1.48836 -0.18691,-0.36141 -1.85381,-9.6113 -1.85381,-10.287 0,-0.0921 0.24565,-0.25308 0.54589,-0.35774 1.12017,-0.3905 3.65577,-1.71643 4.85431,-2.53846 1.95169,-1.33857 2.8789,-2.17885 4.32219,-3.91697 4.62431,-5.56899 6.06509,-12.00533 4.44745,-19.86787 -0.28056,-1.3637 -0.46916,-2.63605 -0.41911,-2.82744 0.0654,-0.2501 0.39793,-0.43334 1.18189,-0.65129 3.07881,-0.856 8.68902,-3.44157 12.87056,-5.93165 7.15871,-4.262953 15.72427,-11.175887 22.56235,-18.209201 l 1.58676,-1.632077 0.34705,0.669574 c 0.61068,1.178288 1.18837,3.454998 1.29337,5.097314 0.12481,1.951946 -0.34654,4.076229 -1.22943,5.540829 -0.67075,1.112701 -3.81818,4.218104 -5.97616,5.896371 -2.78864,2.16873 -7.93471,5.50976 -12.63132,8.20077 -2.20315,1.26233 -8.42341,4.24143 -11.31402,5.41866 -0.96944,0.39481 -1.27844,0.75166 -0.79675,0.92015 0.55891,0.19549 7.02351,-0.98033 8.47242,-1.54103 0.22783,-0.0882 0.32361,0.0893 0.48691,0.90245 0.2777,1.38281 0.25543,2.24901 -0.0894,3.47808 -0.55001,1.96026 -1.43096,2.35122 -6.31785,2.80381 -1.63531,0.15146 -2.29938,0.28004 -2.36786,0.45846 -0.0523,0.13638 -0.0516,0.29144 0.001,0.34457 0.29581,0.29581 5.3227,0.94565 7.33919,0.94875 l 1.10659,0.002 -0.004,0.66395 c -0.01,1.46017 -0.6358,3.33371 -1.39179,4.16362 -0.85971,0.94379 -1.57345,0.97865 -5.62338,0.27468 -2.17532,-0.37812 -2.78925,-0.3579 -2.6188,0.0863 0.14565,0.37955 4.97464,2.55979 7.11561,3.21262 0.48028,0.14646 0.42588,0.48109 -0.36056,2.21786 -1.12704,2.48899 -2.11043,3.13133 -3.9927,2.60801 -0.5663,-0.15744 -1.95015,-0.71878 -3.0752,-1.24742 -2.4573,-1.15461 -2.96029,-1.10744 -1.73385,0.16259 1.20029,1.24295 3.66184,3.37648 4.52928,3.9257 0.42283,0.26773 0.77171,0.55948 0.77526,0.64834 0.0214,0.53394 -2.11505,3.32348 -2.93585,3.83336 -1.30627,0.81145 -2.27898,0.40529 -5.27432,-2.2023 -0.96476,-0.83986 -1.8611,-1.52704 -1.99187,-1.52704 -0.29159,0 -0.3069,0.42322 -0.034,0.94118 0.43039,0.81704 2.2073,3.45547 3.19245,4.74026 0.56662,0.73897 1.03022,1.4282 1.03022,1.53161 0,0.23115 -2.40531,2.60083 -3.11445,3.06831 -0.57838,0.38129 -1.83188,0.45519 -2.41624,0.14245 -0.4478,-0.23966 -0.8541,-0.71341 -2.53675,-2.95787 -1.98215,-2.64396 -1.96677,-2.6274 -2.21521,-2.38417 -0.17133,0.16774 -0.11269,0.50485 0.27721,1.59351 0.77019,2.15042 1.67658,4.47728 2.14344,5.50253 0.23412,0.51413 0.42568,0.99508 0.42568,1.0688 0,0.22031 -1.66813,1.39735 -2.92648,2.06491 -1.32589,0.7034 -2.54223,0.83032 -3.24436,0.33854 z"
         id="path122" /><path
         fill="#1a1a1a"
         d="m 120.99745,154.86764 c -0.58428,-0.2789 -1.55784,-0.87442 -2.16348,-1.32341 l -1.10115,-0.81631 0.5444,-1.19949 c 1.07559,-2.36987 2.65914,-6.76617 2.51891,-6.99306 -0.22277,-0.36046 -0.61359,0.0163 -1.92334,1.85417 -0.77904,1.09317 -1.78025,2.36697 -2.2249,2.83069 -0.75566,0.78806 -0.86686,0.84312 -1.70242,0.84312 -0.6401,0 -1.03899,-0.10853 -1.40473,-0.38224 -0.72426,-0.54198 -3.07809,-2.8563 -3.07809,-3.02641 0,-0.0781 0.46685,-0.75733 1.03744,-1.50941 0.86715,-1.14296 2.06513,-2.92677 3.32959,-4.95778 0.26267,-0.42188 0.18666,-0.74987 -0.17241,-0.74409 -0.11597,0.002 -0.52956,0.28757 -0.91908,0.63489 -2.12451,1.8943 -3.65166,3.10716 -4.2017,3.33697 -1.21794,0.50888 -2.60041,-0.30529 -3.99808,-2.35457 -1.17476,-1.72248 -1.17315,-1.71594 -0.51782,-2.11117 0.86233,-0.52008 4.6399,-3.83781 5.09092,-4.47123 0.59213,-0.83156 0.23761,-1.03036 -0.82784,-0.46421 -2.67767,1.42283 -4.75336,2.15093 -5.65154,1.98242 -0.33736,-0.0633 -0.87575,-0.34543 -1.19642,-0.62699 -0.61927,-0.54373 -1.83311,-2.92975 -1.92332,-3.78064 -0.0495,-0.46717 0.0166,-0.52608 0.92044,-0.82007 1.07902,-0.35096 2.7387,-1.04843 4.83402,-2.03148 1.2779,-0.59955 1.74834,-1.01067 1.47234,-1.28668 -0.0613,-0.0613 -1.1268,0.0597 -2.36786,0.26875 -4.26458,0.71843 -4.73552,0.69596 -5.7528,-0.27451 -0.63572,-0.60647 -1.199095,-2.14187 -1.321461,-3.60147 l -0.09784,-1.16702 2.065351,-0.11796 c 1.99542,-0.11398 5.51964,-0.54303 6.17885,-0.75225 0.17847,-0.0567 0.29618,-0.23292 0.26488,-0.39668 -0.0436,-0.22839 -0.35468,-0.32519 -1.38224,-0.43016 -3.15966,-0.32278 -5.441818,-0.70047 -6.0179,-0.99596 -0.992522,-0.50911 -1.587061,-1.87399 -1.589544,-3.64909 -0.0027,-1.78521 0.252338,-2.7988 0.670685,-2.66767 1.766229,0.55365 6.343119,1.4663 7.646969,1.52485 0.93374,0.042 1.06233,0.0127 1.06233,-0.24136 0,-0.12833 -0.65732,-0.5005 -1.4607,-0.82703 -3.06963,-1.24765 -10.362265,-4.85095 -12.349619,-6.10196 -0.34083,-0.21455 -1.615629,-0.97908 -2.832884,-1.69896 C 82.27407,101.48377 76.775224,96.620618 74.449089,92.166257 73.077713,89.540185 72.499022,86.345822 72.909481,83.6676 c 0.194458,-1.268868 0.989678,-4.012208 1.245066,-4.295247 0.06672,-0.07395 0.762396,0.722801 1.545939,1.770552 2.165284,2.895412 4.501765,5.520278 7.56905,8.503273 5.187127,5.044588 10.560909,9.374132 15.418941,12.422702 0.681666,0.42777 1.518253,0.95506 1.859083,1.17176 1.02928,0.65441 4.03462,2.25741 6.22953,3.32274 2.3147,1.12345 3.68531,1.66858 6.1961,2.46437 1.40503,0.44532 1.73196,0.61564 1.81472,0.94539 0.0555,0.22122 -0.0962,1.22509 -0.33713,2.23083 -1.67425,6.98848 -0.67176,13.23314 3.00689,18.73044 1.03508,1.5468 3.44429,4.05161 4.95623,5.15289 1.079,0.78594 4.97386,2.85984 5.72065,3.04609 0.47313,0.11799 0.46478,0.23461 -0.23102,3.22805 -0.22636,0.97381 -0.54149,2.64698 -0.70031,3.71817 -0.3758,2.53461 -1.9558,7.47626 -2.72283,8.51594 -0.68097,0.92304 -1.91694,1.0196 -3.48294,0.27209 z"
         id="path121" /><path
         fill="#1a1a1a"
         d="m 265.20903,159.15938 c -2.41461,-0.46541 -5.27935,-2.08908 -8.58542,-4.86599 -2.17121,-1.82371 -8.23484,-7.73896 -8.23484,-8.03334 0,-0.11775 0.16793,-0.36587 0.37319,-0.55138 0.20524,-0.1855 1.0495,-1.22857 1.87611,-2.31792 l 1.50294,-1.98064 0.64692,0.4775 c 0.35581,0.26262 1.76237,1.30642 3.12569,2.31957 1.36333,1.01314 2.93064,2.1676 3.48291,2.56547 0.55228,0.39787 1.54811,1.12178 2.21296,1.60867 2.14465,1.57062 8.61343,5.81429 10.38114,6.81027 0.94438,0.53209 1.71705,1.026 1.71705,1.09758 0,0.3814 -2.6015,1.91341 -4.1592,2.44934 -1.02078,0.3512 -3.46902,0.58865 -4.33945,0.42087 z"
         id="path120" /><path
         fill="#1a1a1a"
         d="m 86.399492,158.91918 c -1.752101,-0.47471 -4.796858,-2.15793 -4.796858,-2.65184 0,-0.0836 0.691302,-0.52575 1.536236,-0.98261 0.844926,-0.45684 1.74127,-0.97259 1.991873,-1.14611 0.250604,-0.17351 1.41174,-0.94219 2.580306,-1.70817 3.754887,-2.46127 12.412011,-8.67106 14.500691,-10.40141 l 0.86744,-0.71862 0.28343,0.43429 c 0.15588,0.23886 0.76147,1.06082 1.34576,1.82659 0.58428,0.76577 1.29766,1.70593 1.58531,2.08921 l 0.52296,0.69692 -2.82469,2.84163 c -8.526668,8.57774 -12.896824,10.99233 -17.592458,9.72012 z"
         id="path119" /><path
         fill="#1a1a1a"
         d="m 257.34424,169.88062 c -2.88405,-0.43705 -5.78351,-2.71684 -9.08148,-7.14059 -2.21281,-2.96817 -6.6034,-9.58511 -6.59043,-9.93225 0.003,-0.0974 0.34112,-0.44403 0.74996,-0.77035 0.40884,-0.32629 1.48941,-1.2824 2.40126,-2.12466 0.91185,-0.84225 1.71414,-1.55314 1.78287,-1.57974 0.0688,-0.0266 1.31298,1.32787 2.76502,3.00994 6.20233,7.18493 10.55055,11.92137 13.95102,15.1966 l 1.75673,1.69203 -1.28584,0.57495 c -2.24119,1.00211 -4.47214,1.37368 -6.44911,1.07407 z"
         id="path117" /><path
         fill="#1a1a1a"
         d="m 94.577461,169.81292 c -1.278579,-0.23794 -3.421506,-0.99268 -3.971455,-1.39875 -0.255535,-0.18869 0.07642,-0.59188 2.65583,-3.22578 1.621322,-1.65558 4.111971,-4.32177 5.534766,-5.92486 5.232668,-5.89575 7.003468,-7.90867 8.289028,-9.42241 0.72323,-0.85158 1.38149,-1.54832 1.46282,-1.54832 0.0813,0 0.88391,0.70931 1.78353,1.57622 0.89961,0.86693 1.97016,1.84295 2.379,2.16894 0.40884,0.32598 0.74745,0.64828 0.75249,0.71623 0.0211,0.28465 -4.43983,7.11732 -6.3349,9.70304 -1.52234,2.07718 -3.5512,4.35863 -4.62581,5.20174 -2.49175,1.95497 -5.134668,2.67326 -7.925299,2.15395 z"
         id="path116" /><path
         fill="#1a1a1a"
         d="m 247.98421,180.15546 c -2.75904,-0.46387 -5.51345,-2.89869 -7.60327,-6.72108 -0.82127,-1.50213 -1.77438,-3.40684 -2.25924,-4.5149 -0.21306,-0.48691 -0.61526,-1.40316 -0.89379,-2.03614 -0.52454,-1.19208 -2.1339,-5.24753 -2.88077,-7.25927 -0.23499,-0.63297 -0.48299,-1.28038 -0.55111,-1.43869 -0.096,-0.22308 0.14737,-0.43537 1.08178,-0.94371 0.66309,-0.36073 1.98408,-1.17903 2.93555,-1.81843 0.95146,-0.63941 1.76449,-1.128 1.80672,-1.08577 0.0422,0.0422 1.16364,2.06567 2.49198,4.49652 1.32836,2.43084 2.85615,5.17663 3.3951,6.10174 1.46898,2.52156 3.4485,5.85805 3.85232,6.49313 0.19646,0.30897 0.63607,1.02551 0.9769,1.59231 0.34083,0.56678 1.42963,2.23732 2.41958,3.71227 l 1.79987,2.68175 -0.9146,0.27752 c -2.04097,0.6193 -3.84709,0.76704 -5.65702,0.46275 z"
         id="path113" /><path
         fill="#1a1a1a"
         d="m 103.46897,180.16246 c -1.0673,-0.16052 -2.20833,-0.4707 -2.55708,-0.69513 -0.20972,-0.13495 -0.13547,-0.33274 0.41549,-1.10664 0.36896,-0.51827 1.11082,-1.61955 1.64857,-2.44728 0.53776,-0.82774 1.15899,-1.78384 1.38051,-2.12467 1.33313,-2.05107 6.35772,-10.78949 9.18807,-15.97924 1.04891,-1.92327 1.94301,-3.49685 1.98689,-3.49685 0.0439,0 0.85351,0.50524 1.79913,1.12276 0.9456,0.61752 2.22109,1.39435 2.8344,1.72629 0.99638,0.53928 1.10589,0.65205 1.02871,1.05934 -0.0476,0.2507 -0.61439,1.80437 -1.25972,3.45258 -4.7209,12.05757 -7.25908,16.22673 -10.86362,17.84436 -1.68876,0.75787 -3.4784,0.96378 -5.60135,0.64448 z"
         id="path112" /><path
         fill="#1a1a1a"
         d="m 237.85398,189.2078 c -2.14262,-0.58555 -4.19528,-1.93023 -5.43475,-3.56029 -1.15442,-1.5182 -2.4112,-4.18766 -3.41085,-7.24484 -0.35851,-1.09641 -0.46024,-1.68592 -0.3819,-2.21319 0.0587,-0.3953 0.18614,-1.25291 0.28316,-1.90582 0.36545,-2.45948 0.71126,-7.90329 0.71126,-11.19663 v -3.41462 l 0.84102,-0.33269 c 0.46256,-0.18299 0.9102,-0.33324 0.99476,-0.33391 0.0846,-6.5e-4 0.37375,0.71588 0.64261,1.5923 1.51421,4.93592 3.15007,9.71992 4.78287,13.98738 1.82738,4.77595 3.72515,9.17075 5.17954,11.99455 0.68936,1.33846 1.19535,2.4916 1.12443,2.56252 -0.18393,0.18392 -4.69585,0.23912 -5.33215,0.0653 z"
         id="path109" /><path
         fill="#1a1a1a"
         d="m 112.27748,189.2529 c -0.2191,-0.0467 -0.39837,-0.15885 -0.39837,-0.24917 0,-0.0903 0.46933,-1.0608 1.04296,-2.15662 1.7545,-3.35162 4.44397,-9.88094 6.47275,-15.71417 0.55884,-1.60678 1.16074,-3.31979 1.33755,-3.80669 0.17681,-0.48691 0.69544,-2.0804 1.15252,-3.54111 1.18035,-3.77213 1.57021,-4.86902 1.7306,-4.86902 0.0772,0 0.45595,0.16096 0.84159,0.3577 l 0.70117,0.35772 v 2.61099 c 0,3.59474 0.28553,7.67644 0.80151,11.45771 0.48474,3.55239 0.49369,3.45339 -0.58353,6.46252 -1.749,4.88568 -3.66835,7.34299 -6.66403,8.53186 -1.32579,0.52614 -1.60497,0.57144 -3.73463,0.60594 -1.26594,0.0205 -2.48098,-6.7e-4 -2.70009,-0.0477 z"
         id="path108" /><path
         fill="#1a1a1a"
         d="m 231.88516,195.82306 c -2.58584,-0.62694 -4.84925,-2.37898 -6.02425,-4.66317 l -0.64428,-1.25248 0.41711,-1.28696 c 0.65141,-2.00985 1.48282,-4.938 1.60966,-5.66906 0.0634,-0.36518 0.16608,-0.66388 0.22829,-0.66377 0.0622,1.1e-4 0.36767,0.57774 0.67885,1.28365 2.82906,6.41779 4.57035,10.09213 5.5168,11.64119 0.20824,0.34083 0.37892,0.67946 0.37928,0.75249 0.001,0.20063 -1.02711,0.13313 -2.16146,-0.14189 z"
         id="path106" /><path
         fill="#1a1a1a"
         d="m 121.32141,195.61084 c 0.12008,-0.2678 0.56535,-1.16414 0.9895,-1.99187 0.95565,-1.86493 2.63155,-5.50431 3.66897,-7.9675 0.43064,-1.0225 0.95266,-2.21216 1.16002,-2.64369 0.36551,-0.76067 0.38198,-0.77148 0.53971,-0.35412 0.0894,0.23678 0.35106,1.14759 0.58128,2.02402 0.23022,0.87641 0.66513,2.39024 0.96648,3.36405 0.54228,1.75237 0.54482,1.77872 0.24818,2.56729 -1.0987,2.92069 -4.82418,5.48872 -7.96255,5.48872 -0.38208,0 -0.39509,-0.033 -0.19159,-0.4869 z"
         id="path105" /><path
         fill="#1a1a1a"
         d="m 176.15019,225.65556 c -5.53324,-0.36575 -11.17322,-1.89262 -16.33998,-4.42361 -9.69462,-4.74901 -17.32196,-12.85767 -22.68514,-24.11671 -1.01266,-2.12589 -1.27463,-2.74303 -2.34846,-5.5324 -1.06221,-2.75916 -2.61798,-7.91553 -3.15185,-10.44628 -0.16434,-0.77904 -0.36973,-1.65547 -0.45641,-1.9476 -0.35286,-1.18923 -1.23131,-6.74632 -1.52535,-9.64952 -0.43999,-4.34432 -0.44307,-13.76943 -0.006,-17.97112 0.43954,-4.22419 1.82806,-11.70082 2.77851,-14.96117 0.18451,-0.63298 0.6289,-2.18664 0.98752,-3.45259 0.3586,-1.26594 1.63267,-5.25415 2.83125,-8.86268 1.19857,-3.60853 2.46813,-7.54577 2.82125,-8.74943 1.35024,-4.60252 2.38309,-10.23515 3.00621,-16.394265 0.61793,-6.107912 2.08674,-11.387705 4.42974,-15.923224 5.06703,-9.808553 14.63872,-16.929333 25.76336,-19.166427 2.17273,-0.436924 2.75276,-0.480937 6.374,-0.483687 3.48849,-0.0027 4.22586,0.04778 5.93134,0.405774 6.44401,1.352598 11.25995,3.945611 15.84678,8.532266 3.75559,3.755442 5.98528,7.12097 8.44581,12.748212 1.05207,2.406117 2.19156,6.274979 2.9724,10.092154 1.35876,6.642407 1.87369,8.614747 3.72113,14.252947 0.4148,1.26595 1.09061,3.37734 1.50181,4.69197 0.4112,1.31464 0.89268,2.82847 1.06999,3.36405 0.1773,0.5356 0.61451,1.96975 0.97159,3.187 0.35708,1.21726 0.79622,2.69124 0.97587,3.27553 1.03129,3.35415 3.29238,12.67877 3.7996,15.6694 0.1569,0.92511 0.35799,1.96088 0.44685,2.30171 0.29511,1.13176 1.21601,8.54639 1.3964,11.24302 0.78582,11.74665 -0.12041,22.53277 -2.67765,31.86996 -1.97477,7.21042 -3.6687,11.57334 -6.6662,17.16966 -7.59599,14.18167 -19.94729,22.4046 -34.99137,23.29564 -1.4607,0.0866 -2.77535,0.14801 -2.92142,0.13665 -0.14607,-0.0113 -1.18184,-0.0812 -2.30171,-0.15523 z m -0.24101,-10.70029 c 0.92793,-0.3877 1.30335,-0.77053 1.30335,-1.32905 0,-0.9341 -1.43416,-1.61826 -3.45259,-1.64703 -1.53315,-0.0219 -2.58761,0.27258 -3.32016,0.92712 -0.50684,0.45285 -0.54167,0.54658 -0.35524,0.95575 0.2691,0.59059 0.80117,0.92688 1.99573,1.26135 1.14208,0.31978 2.83958,0.24524 3.82891,-0.16814 z m 25.02497,-12.84541 c 2.17466,-1.20012 0.80771,-2.63173 -2.31244,-2.42183 -2.16472,0.14563 -3.46875,1.01884 -3.01352,2.01795 0.32159,0.70582 1.14438,0.9565 2.9395,0.89558 1.29748,-0.0441 1.74081,-0.13538 2.38646,-0.4917 z m -42.89448,-8.84719 c 2.52106,-1.10244 -0.59106,-3.48276 -4.0771,-3.1184 -2.70264,0.28249 -3.31196,1.86289 -1.10736,2.87218 1.81699,0.83185 3.64654,0.91873 5.18446,0.24622 z m 52.35162,-18.77203 c 1.47929,-0.21383 2.66144,-0.71268 3.41359,-1.44048 0.80473,-0.77869 0.88105,-1.28379 0.3217,-2.12903 -1.19941,-1.81244 -5.81958,-2.6538 -8.92657,-1.62559 -1.32452,0.43833 -2.31447,1.39601 -2.31447,2.23903 0,1.19975 1.57225,2.39863 3.62965,2.76771 2.2639,0.40613 2.34295,0.40998 3.8761,0.18836 z M 145.69667,157.902 c 1.23052,-0.57488 2.16199,-1.41726 2.46974,-2.23348 0.5567,-1.47644 -1.62379,-2.70375 -4.00222,-2.25268 -4.04332,0.7668 -6.2087,3.52589 -3.74897,4.77688 0.66971,0.34061 0.97904,0.38083 2.44857,0.3184 1.41148,-0.06 1.86714,-0.15793 2.83288,-0.60912 z m 41.14792,-11.09547 c 0.59004,-0.24654 1.1683,-0.88201 1.1683,-1.2839 0,-0.431 -0.96115,-1.33532 -1.94957,-1.83426 -2.75313,-1.38978 -6.37202,-0.98975 -6.37202,0.70435 0,0.66124 1.07168,1.62263 2.32282,2.0838 0.52398,0.19313 1.07221,0.39565 1.21828,0.45005 0.5491,0.20446 3.03311,0.12191 3.61219,-0.12004 z m 28.53784,-10.73055 c 0.53997,0 1.13638,-0.58331 1.13638,-1.1114 0,-1.33831 -3.38666,-3.10562 -5.59955,-2.92211 -2.3926,0.19841 -2.12292,1.97349 0.50034,3.29338 1.056,0.53133 2.78429,0.95435 3.29888,0.80744 0.12968,-0.037 0.42847,-0.0674 0.66395,-0.0674 z M 151.77086,120.231 c 2.06239,-0.53719 4.2765,-1.94953 5.10549,-3.2567 1.45689,-2.2973 -0.49248,-3.7897 -3.83894,-2.93905 -2.46795,0.62735 -4.98962,2.32754 -5.7346,3.86644 -0.31387,0.64836 -0.3389,0.84992 -0.16685,1.34345 0.3951,1.13341 2.41716,1.56351 4.6349,0.98586 z m 37.48941,-5.62479 c 1.00399,-0.627 0.35238,-1.552 -1.40994,-2.00152 -1.69123,-0.43139 -3.37854,-0.0394 -3.37854,0.78485 0,0.51452 0.9143,1.17102 2.03614,1.46201 0.68878,0.17866 2.30394,0.0346 2.75234,-0.24534 z m 13.95177,-18.81992 c 1.85222,-0.741116 0.9933,-2.533122 -1.87161,-3.904858 -1.14899,-0.550138 -1.61591,-0.672344 -2.82709,-0.739919 -1.68241,-0.09387 -2.12689,-0.01164 -2.66927,0.493625 -0.82329,0.767014 -0.33932,2.001808 1.16069,2.961354 2.00295,1.281269 4.69096,1.796501 6.20728,1.189798 z m -43.51586,-8.685888 c 1.70102,-0.504746 3.35192,-1.901631 3.35192,-2.836188 0,-1.118772 -1.30758,-1.644377 -3.23063,-1.298629 -3.19498,0.574436 -5.55055,2.906935 -4.09329,4.053217 0.58998,0.46408 2.5475,0.504298 3.972,0.0816 z m 27.06144,-10.351088 c 1.65821,-0.355626 2.2862,-1.338613 1.33379,-2.08778 -1.52305,-1.198035 -4.98911,-1.280439 -6.23118,-0.148137 -0.52135,0.475262 -0.50251,0.752446 0.0885,1.303325 1.0127,0.943873 2.97857,1.325122 4.80887,0.932592 z"
         id="path100" /></g></g>
  </g>
  <path fill="#1a1a1a" d="M89.75 24Q89.45 24 89.36 23.72L88.65 20.78Q88.62 20.67 88.51 20.67L82.84 20.67Q82.73 20.67 82.70 20.78L82.01 23.72Q81.93 24 81.62 24L79.01 24Q78.65 24 78.73 23.64L83.75 4.99Q83.83 4.72 84.13 4.72L87.27 4.72Q87.57 4.72 87.66 4.99L92.67 23.64L92.70 23.75Q92.70 24 92.39 24L89.75 24M83.36 18Q83.33 18.08 83.39 18.12Q83.44 18.16 83.50 18.16L87.85 18.16Q87.90 18.16 87.96 18.12Q88.02 18.08 87.99 18L85.73 8.96Q85.70 8.88 85.65 8.88Q85.59 8.88 85.56 8.96L83.36 18M96.77 24Q96.64 24 96.54 23.90Q96.44 23.81 96.44 23.67L96.44 5.05Q96.44 4.91 96.54 4.82Q96.64 4.72 96.77 4.72L99.31 4.72Q99.45 4.72 99.54 4.82Q99.64 4.91 99.64 5.05L99.64 21.11Q99.64 21.25 99.78 21.25L107.35 21.25Q107.49 21.25 107.59 21.34Q107.68 21.44 107.68 21.58L107.68 23.67Q107.68 23.81 107.59 23.90Q107.49 24 107.35 24L96.77 24M121.92 4.94Q122.03 4.72 122.31 4.72L124.87 4.72Q125.01 4.72 125.10 4.82Q125.20 4.91 125.20 5.05L125.20 23.67Q125.20 23.81 125.10 23.90Q125.01 24 124.87 24L122.34 24Q122.20 24 122.10 23.90Q122 23.81 122 23.67L122 10.61Q122 10.50 121.95 10.49Q121.89 10.48 121.84 10.56L118.92 15.38Q118.81 15.60 118.53 15.60L118.01 15.60Q117.74 15.60 117.63 15.38L114.71 10.59Q114.65 10.50 114.60 10.52Q114.54 10.53 114.54 10.64L114.54 23.67Q114.54 23.81 114.44 23.90Q114.35 24 114.21 24L111.68 24Q111.54 24 111.44 23.90Q111.35 23.81 111.35 23.67L111.35 5.05Q111.35 4.91 111.44 4.82Q111.54 4.72 111.68 4.72L114.21 4.72Q114.49 4.72 114.60 4.94L118.20 10.70Q118.29 10.86 118.37 10.70L121.92 4.94M139.94 24Q139.63 24 139.55 23.72L138.83 20.78Q138.81 20.67 138.70 20.67L133.02 20.67Q132.91 20.67 132.88 20.78L132.20 23.72Q132.11 24 131.81 24L129.19 24Q128.84 24 128.92 23.64L133.93 4.99Q134.01 4.72 134.32 4.72L137.46 4.72Q137.76 4.72 137.84 4.99L142.86 23.64L142.88 23.75Q142.88 24 142.58 24L139.94 24M133.55 18Q133.52 18.08 133.57 18.12Q133.63 18.16 133.68 18.16L138.04 18.16Q138.09 18.16 138.15 18.12Q138.20 18.08 138.17 18L135.91 8.96Q135.89 8.88 135.83 8.88Q135.78 8.88 135.75 8.96L133.55 18M156.13 5.05Q156.13 4.91 156.23 4.82Q156.33 4.72 156.46 4.72L159 4.72Q159.13 4.72 159.23 4.82Q159.33 4.91 159.33 5.05L159.33 23.67Q159.33 23.81 159.23 23.90Q159.13 24 159 24L156.33 24Q156.08 24 155.94 23.75L149.93 11.41Q149.88 11.33 149.82 11.34Q149.77 11.36 149.77 11.47L149.80 23.67Q149.80 23.81 149.70 23.90Q149.60 24 149.47 24L146.93 24Q146.79 24 146.70 23.90Q146.60 23.81 146.60 23.67L146.60 5.05Q146.60 4.91 146.70 4.82Q146.79 4.72 146.93 4.72L149.58 4.72Q149.85 4.72 149.96 4.97L155.99 17.36Q156.05 17.44 156.10 17.43Q156.16 17.42 156.16 17.31L156.13 5.05M171.42 24Q171.28 24 171.19 23.90Q171.09 23.81 171.09 23.67L171.09 5.05Q171.09 4.91 171.19 4.82Q171.28 4.72 171.42 4.72L173.95 4.72Q174.09 4.72 174.19 4.82Q174.28 4.91 174.28 5.05L174.28 23.67Q174.28 23.81 174.19 23.90Q174.09 24 173.95 24L171.42 24M188.66 5.05Q188.66 4.91 188.76 4.82Q188.86 4.72 188.99 4.72L191.53 4.72Q191.66 4.72 191.76 4.82Q191.86 4.91 191.86 5.05L191.86 23.67Q191.86 23.81 191.76 23.90Q191.66 24 191.53 24L188.86 24Q188.61 24 188.47 23.75L182.46 11.41Q182.41 11.33 182.35 11.34Q182.30 11.36 182.30 11.47L182.33 23.67Q182.33 23.81 182.23 23.90Q182.13 24 182 24L179.46 24Q179.32 24 179.23 23.90Q179.13 23.81 179.13 23.67L179.13 5.05Q179.13 4.91 179.23 4.82Q179.32 4.72 179.46 4.72L182.11 4.72Q182.38 4.72 182.49 4.97L188.52 17.36Q188.58 17.44 188.63 17.43Q188.69 17.42 188.69 17.31L188.66 5.05M202.10 24.22Q200.29 24.22 198.91 23.57Q197.53 22.93 196.77 21.73Q196.02 20.53 196.02 18.96L196.02 18.24Q196.02 18.11 196.11 18.01Q196.21 17.91 196.35 17.91L198.83 17.91Q198.96 17.91 199.06 18.01Q199.16 18.11 199.16 18.24L199.16 18.79Q199.16 19.98 199.98 20.72Q200.81 21.47 202.21 21.47Q203.51 21.47 204.20 20.80Q204.89 20.14 204.89 19.07Q204.89 18.33 204.50 17.79Q204.11 17.25 203.41 16.80Q202.71 16.34 201.25 15.57Q199.57 14.69 198.55 14Q197.53 13.31 196.83 12.24Q196.13 11.16 196.13 9.62Q196.13 7.25 197.71 5.88Q199.29 4.50 201.88 4.50Q203.67 4.50 205.05 5.17Q206.43 5.85 207.17 7.09Q207.92 8.33 207.92 9.92L207.92 10.50Q207.92 10.64 207.82 10.74Q207.72 10.83 207.59 10.83L205.11 10.83Q204.97 10.83 204.87 10.74Q204.78 10.64 204.78 10.50L204.78 9.98Q204.78 8.80 203.98 8.02Q203.18 7.25 201.83 7.25Q200.64 7.25 199.96 7.87Q199.27 8.49 199.27 9.59Q199.27 10.34 199.62 10.86Q199.98 11.38 200.71 11.85Q201.44 12.32 202.93 13.06Q204.91 14.19 205.85 14.83Q206.79 15.46 207.43 16.47Q208.08 17.47 208.08 18.93Q208.08 21.36 206.46 22.79Q204.83 24.22 202.10 24.22M223.20 4.72Q223.34 4.72 223.44 4.82Q223.53 4.91 223.53 5.05L223.53 7.17Q223.53 7.31 223.44 7.40Q223.34 7.50 223.20 7.50L218.93 7.50Q218.80 7.50 218.80 7.64L218.80 23.67Q218.80 23.81 218.70 23.90Q218.60 24 218.47 24L215.93 24Q215.79 24 215.70 23.90Q215.60 23.81 215.60 23.67L215.60 7.64Q215.60 7.50 215.46 7.50L211.36 7.50Q211.22 7.50 211.12 7.40Q211.03 7.31 211.03 7.17L211.03 5.05Q211.03 4.91 211.12 4.82Q211.22 4.72 211.36 4.72L223.20 4.72M227.86 24Q227.72 24 227.62 23.90Q227.53 23.81 227.53 23.67L227.53 5.05Q227.53 4.91 227.62 4.82Q227.72 4.72 227.86 4.72L230.39 4.72Q230.53 4.72 230.63 4.82Q230.72 4.91 230.72 5.05L230.72 23.67Q230.72 23.81 230.63 23.90Q230.53 24 230.39 24L227.86 24M246.86 4.72Q247 4.72 247.10 4.82Q247.19 4.91 247.19 5.05L247.19 7.17Q247.19 7.31 247.10 7.40Q247 7.50 246.86 7.50L242.59 7.50Q242.46 7.50 242.46 7.64L242.46 23.67Q242.46 23.81 242.36 23.90Q242.26 24 242.13 24L239.59 24Q239.45 24 239.36 23.90Q239.26 23.81 239.26 23.67L239.26 7.64Q239.26 7.50 239.12 7.50L235.02 7.50Q234.88 7.50 234.79 7.40Q234.69 7.31 234.69 7.17L234.69 5.05Q234.69 4.91 234.79 4.82Q234.88 4.72 235.02 4.72L246.86 4.72M257.08 24.22Q255.29 24.22 253.92 23.48Q252.54 22.73 251.78 21.37Q251.02 20.01 251.02 18.22L251.02 5.05Q251.02 4.91 251.12 4.82Q251.22 4.72 251.35 4.72L253.89 4.72Q254.03 4.72 254.12 4.82Q254.22 4.91 254.22 5.05L254.22 18.38Q254.22 19.76 255 20.61Q255.79 21.47 257.08 21.47Q258.38 21.47 259.18 20.61Q259.97 19.76 259.97 18.38L259.97 5.05Q259.97 4.91 260.07 4.82Q260.17 4.72 260.31 4.72L262.84 4.72Q262.98 4.72 263.07 4.82Q263.17 4.91 263.17 5.05L263.17 18.22Q263.17 20.01 262.41 21.37Q261.66 22.73 260.28 23.48Q258.90 24.22 257.08 24.22M279.17 4.72Q279.31 4.72 279.41 4.82Q279.50 4.91 279.50 5.05L279.50 7.17Q279.50 7.31 279.41 7.40Q279.31 7.50 279.17 7.50L274.90 7.50Q274.77 7.50 274.77 7.64L274.77 23.67Q274.77 23.81 274.67 23.90Q274.57 24 274.44 24L271.90 24Q271.76 24 271.67 23.90Q271.57 23.81 271.57 23.67L271.57 7.64Q271.57 7.50 271.43 7.50L267.33 7.50Q267.19 7.50 267.10 7.40Q267 7.31 267 7.17L267 5.05Q267 4.91 267.10 4.82Q267.19 4.72 267.33 4.72"/>
  <path fill="#6b6b6b" d="M83.63 34.28Q83.63 34.40 83.51 34.40L79.95 34.40Q79.90 34.40 79.90 34.45L79.90 37.11Q79.90 37.16 79.95 37.16L82.29 37.16Q82.41 37.16 82.41 37.29L82.41 38.06Q82.41 38.18 82.29 38.18L79.95 38.18Q79.90 38.18 79.90 38.23L79.90 41.88Q79.90 42 79.78 42L78.84 42Q78.72 42 78.72 41.88L78.72 33.51Q78.72 33.38 78.84 33.38L83.51 33.38Q83.63 33.38 83.63 33.51L83.63 34.28M89.97 42.10Q89.19 42.10 88.60 41.77Q88 41.45 87.67 40.85Q87.35 40.25 87.35 39.46L87.35 33.51Q87.35 33.38 87.47 33.38L88.40 33.38Q88.53 33.38 88.53 33.51L88.53 39.54Q88.53 40.23 88.93 40.65Q89.33 41.08 89.97 41.08Q90.62 41.08 91.02 40.65Q91.42 40.23 91.42 39.54L91.42 33.51Q91.42 33.38 91.54 33.38L92.48 33.38Q92.60 33.38 92.60 33.51L92.60 39.46Q92.60 40.25 92.28 40.85Q91.95 41.45 91.35 41.77Q90.76 42.10 89.97 42.10M91.03 32.37Q90.68 32.37 90.46 32.15Q90.24 31.93 90.24 31.59Q90.24 31.24 90.46 31.02Q90.68 30.80 91.03 30.80Q91.37 30.80 91.59 31.02Q91.81 31.24 91.81 31.59Q91.81 31.93 91.59 32.15Q91.37 32.37 91.03 32.37M88.91 32.37Q88.56 32.37 88.34 32.15Q88.12 31.93 88.12 31.59Q88.12 31.24 88.34 31.02Q88.56 30.80 88.91 30.80Q89.25 30.80 89.48 31.02Q89.70 31.24 89.70 31.59Q89.70 31.93 89.48 32.15Q89.25 32.37 88.91 32.37M101.17 42Q101.07 42 101.03 41.90L99.61 38.23Q99.59 38.20 99.56 38.20L98.24 38.20Q98.19 38.20 98.19 38.25L98.19 41.88Q98.19 42 98.07 42L97.13 42Q97.01 42 97.01 41.88L97.01 33.51Q97.01 33.38 97.13 33.38L99.89 33.38Q100.92 33.38 101.55 34.06Q102.18 34.74 102.18 35.83Q102.18 36.66 101.80 37.25Q101.42 37.84 100.75 38.06Q100.71 38.07 100.73 38.12L102.23 41.85L102.24 41.90Q102.24 42 102.13 42L101.17 42M98.24 34.40Q98.19 34.40 98.19 34.45L98.19 37.21Q98.19 37.26 98.24 37.26L99.73 37.26Q100.30 37.26 100.65 36.87Q101 36.49 101 35.85Q101 35.19 100.65 34.80Q100.31 34.40 99.73 34.40L98.24 34.40M113.71 42.10Q112.93 42.10 112.33 41.81Q111.73 41.52 111.41 41Q111.08 40.49 111.08 39.80L111.08 39.46Q111.08 39.34 111.20 39.34L112.11 39.34Q112.24 39.34 112.24 39.46L112.24 39.73Q112.24 40.34 112.65 40.71Q113.06 41.08 113.76 41.08Q114.39 41.08 114.75 40.74Q115.12 40.40 115.12 39.85Q115.12 39.48 114.93 39.21Q114.75 38.93 114.40 38.70Q114.05 38.47 113.38 38.11Q112.63 37.72 112.18 37.41Q111.73 37.10 111.44 36.63Q111.14 36.17 111.14 35.50Q111.14 34.47 111.82 33.88Q112.50 33.28 113.62 33.28Q114.39 33.28 114.98 33.58Q115.57 33.88 115.90 34.41Q116.23 34.95 116.23 35.65L116.23 35.93Q116.23 36.05 116.10 36.05L115.18 36.05Q115.06 36.05 115.06 35.93L115.06 35.67Q115.06 35.07 114.66 34.69Q114.27 34.31 113.59 34.31Q112.99 34.31 112.65 34.61Q112.31 34.92 112.31 35.49Q112.31 35.86 112.48 36.12Q112.64 36.37 112.99 36.60Q113.33 36.83 114.01 37.17Q114.86 37.65 115.30 37.96Q115.73 38.27 116.01 38.71Q116.29 39.16 116.29 39.78Q116.29 40.84 115.59 41.47Q114.90 42.10 113.71 42.10M123.20 33.37Q124.25 33.37 124.88 34.05Q125.52 34.74 125.52 35.86Q125.52 36.95 124.88 37.62Q124.25 38.29 123.20 38.29L121.56 38.29Q121.51 38.29 121.51 38.34L121.51 41.88Q121.51 42 121.38 42L120.45 42Q120.32 42 120.32 41.88L120.32 33.49Q120.32 33.37 120.45 33.37L123.20 33.37M123.03 37.35Q123.62 37.35 123.99 36.95Q124.35 36.55 124.35 35.88Q124.35 35.20 123.99 34.80Q123.62 34.39 123.03 34.39L121.56 34.39Q121.51 34.39 121.51 34.44L121.51 37.30Q121.51 37.35 121.56 37.35L123.03 37.35M133.66 42Q133.56 42 133.52 41.90L132.09 38.23Q132.08 38.20 132.04 38.20L130.73 38.20Q130.68 38.20 130.68 38.25L130.68 41.88Q130.68 42 130.55 42L129.62 42Q129.49 42 129.49 41.88L129.49 33.51Q129.49 33.38 129.62 33.38L132.38 33.38Q133.41 33.38 134.04 34.06Q134.67 34.74 134.67 35.83Q134.67 36.66 134.28 37.25Q133.90 37.84 133.24 38.06Q133.20 38.07 133.21 38.12L134.71 41.85L134.73 41.90Q134.73 42 134.62 42L133.66 42M130.73 34.40Q130.68 34.40 130.68 34.45L130.68 37.21Q130.68 37.26 130.73 37.26L132.22 37.26Q132.78 37.26 133.13 36.87Q133.48 36.49 133.48 35.85Q133.48 35.19 133.14 34.80Q132.79 34.40 132.22 34.40L130.73 34.40M143.32 42Q143.21 42 143.18 41.89L142.81 40.46Q142.80 40.42 142.75 40.42L140.03 40.42Q139.97 40.42 139.97 40.46L139.61 41.89Q139.60 42 139.48 42L138.52 42Q138.46 42 138.43 41.96Q138.39 41.93 138.41 41.86L140.68 33.49Q140.71 33.38 140.82 33.38L141.98 33.38Q142.09 33.38 142.11 33.49L144.40 41.86L144.41 41.90Q144.41 42 144.29 42L143.32 42M140.23 39.44Q140.22 39.45 140.24 39.47Q140.25 39.49 140.28 39.49L142.51 39.49Q142.53 39.49 142.55 39.47Q142.57 39.45 142.56 39.44L141.41 34.98Q141.40 34.96 141.39 34.96Q141.37 34.96 141.36 34.98L140.23 39.44M150.52 42.10Q149.74 42.10 149.15 41.78Q148.55 41.47 148.22 40.90Q147.90 40.33 147.90 39.57L147.90 35.80Q147.90 34.65 148.62 33.97Q149.34 33.28 150.52 33.28Q151.70 33.28 152.42 33.96Q153.13 34.64 153.13 35.76L153.13 35.86Q153.13 35.92 153.09 35.96Q153.06 35.99 153.01 35.99L152.07 36.04Q151.95 36.04 151.95 35.92L151.95 35.73Q151.95 35.09 151.55 34.70Q151.16 34.31 150.52 34.31Q149.88 34.31 149.48 34.70Q149.08 35.09 149.08 35.73L149.08 39.65Q149.08 40.29 149.48 40.68Q149.88 41.08 150.52 41.08Q151.16 41.08 151.55 40.68Q151.95 40.29 151.95 39.65L151.95 39.48Q151.95 39.35 152.07 39.35L153.01 39.40Q153.13 39.40 153.13 39.53L153.13 39.61Q153.13 40.35 152.80 40.92Q152.48 41.48 151.89 41.79Q151.30 42.10 150.52 42.10M161.30 33.51Q161.30 33.38 161.43 33.38L162.36 33.38Q162.49 33.38 162.49 33.51L162.49 41.88Q162.49 42 162.36 42L161.43 42Q161.30 42 161.30 41.88L161.30 38.23Q161.30 38.18 161.25 38.18L158.57 38.18Q158.52 38.18 158.52 38.23L158.52 41.88Q158.52 42 158.40 42L157.46 42Q157.34 42 157.34 41.88L157.34 33.51Q157.34 33.38 157.46 33.38L158.40 33.38Q158.52 33.38 158.52 33.51L158.52 37.11Q158.52 37.16 158.57 37.16L161.25 37.16Q161.30 37.16 161.30 37.11L161.30 33.51M168.79 42Q168.68 42 168.65 41.89L166.45 33.52L166.44 33.48Q166.44 33.38 166.56 33.38L167.57 33.38Q167.69 33.38 167.70 33.49L169.30 40.09Q169.32 40.13 169.33 40.13Q169.34 40.13 169.35 40.09L170.95 33.49Q170.98 33.38 171.09 33.38L172.06 33.38Q172.12 33.38 172.15 33.42Q172.19 33.46 172.17 33.52L169.94 41.89Q169.92 42 169.81 42L168.79 42M181.01 34.28Q181.01 34.40 180.89 34.40L177.32 34.40Q177.27 34.40 177.27 34.45L177.27 37.11Q177.27 37.16 177.32 37.16L179.67 37.16Q179.79 37.16 179.79 37.29L179.79 38.06Q179.79 38.18 179.67 38.18L177.32 38.18Q177.27 38.18 177.27 38.23L177.27 40.93Q177.27 40.98 177.32 40.98L180.89 40.98Q181.01 40.98 181.01 41.10L181.01 41.88Q181.01 42 180.89 42L176.21 42Q176.09 42 176.09 41.88L176.09 33.51Q176.09 33.38 176.21 33.38L180.89 33.38Q181.01 33.38 181.01 33.51L181.01 34.28M189.30 42Q189.20 42 189.16 41.90L187.73 38.23Q187.72 38.20 187.68 38.20L186.37 38.20Q186.32 38.20 186.32 38.25L186.32 41.88Q186.32 42 186.19 42L185.26 42Q185.14 42 185.14 41.88L185.14 33.51Q185.14 33.38 185.26 33.38L188.02 33.38Q189.05 33.38 189.68 34.06Q190.31 34.74 190.31 35.83Q190.31 36.66 189.92 37.25Q189.54 37.84 188.88 38.06Q188.84 38.07 188.85 38.12L190.35 41.85L190.37 41.90Q190.37 42 190.26 42L189.30 42M186.37 34.40Q186.32 34.40 186.32 34.45L186.32 37.21Q186.32 37.26 186.37 37.26L187.86 37.26Q188.42 37.26 188.77 36.87Q189.12 36.49 189.12 35.85Q189.12 35.19 188.78 34.80Q188.43 34.40 187.86 34.40L186.37 34.40M199.33 34.28Q199.33 34.40 199.21 34.40L195.64 34.40Q195.59 34.40 195.59 34.45L195.59 37.11Q195.59 37.16 195.64 37.16L197.99 37.16Q198.11 37.16 198.11 37.29L198.11 38.06Q198.11 38.18 197.99 38.18L195.64 38.18Q195.59 38.18 195.59 38.23L195.59 40.93Q195.59 40.98 195.64 40.98L199.21 40.98Q199.33 40.98 199.33 41.10L199.33 41.88Q199.33 42 199.21 42L194.53 42Q194.40 42 194.40 41.88L194.40 33.51Q194.40 33.38 194.53 33.38L199.21 33.38Q199.33 33.38 199.33 33.51L199.33 34.28M203.58 42Q203.45 42 203.45 41.88L203.45 33.51Q203.45 33.38 203.58 33.38L204.51 33.38Q204.63 33.38 204.63 33.51L204.63 41.88Q204.63 42 204.51 42L203.58 42M213.39 33.51Q213.39 33.38 213.51 33.38L214.44 33.38Q214.57 33.38 214.57 33.51L214.57 41.88Q214.57 42 214.44 42L213.46 42Q213.35 42 213.31 41.91L210.35 35.94Q210.32 35.92 210.30 35.92Q210.28 35.92 210.28 35.96L210.30 41.88Q210.30 42 210.17 42L209.24 42Q209.11 42 209.11 41.88L209.11 33.51Q209.11 33.38 209.24 33.38L210.22 33.38Q210.33 33.38 210.37 33.47L213.32 39.44Q213.35 39.46 213.37 39.46Q213.39 39.46 213.39 39.43L213.39 33.51M223.89 34.28Q223.89 34.40 223.76 34.40L220.21 34.40Q220.16 34.40 220.16 34.45L220.16 37.11Q220.16 37.16 220.21 37.16L222.54 37.16Q222.67 37.16 222.67 37.29L222.67 38.06Q222.67 38.18 222.54 38.18L220.21 38.18Q220.16 38.18 220.16 38.23L220.16 41.88Q220.16 42 220.03 42L219.10 42Q218.97 42 218.97 41.88L218.97 33.51Q218.97 33.38 219.10 33.38L223.76 33.38Q223.89 33.38 223.89 33.51L223.89 34.28M231.42 42Q231.31 42 231.28 41.89L230.92 40.46Q230.90 40.42 230.85 40.42L228.13 40.42Q228.07 40.42 228.07 40.46L227.71 41.89Q227.70 42 227.58 42L226.62 42Q226.56 42 226.53 41.96Q226.50 41.93 226.51 41.86L228.79 33.49Q228.81 33.38 228.92 33.38L230.08 33.38Q230.19 33.38 230.21 33.49L232.50 41.86L232.52 41.90Q232.52 42 232.39 42L231.42 42M228.33 39.44Q228.32 39.45 228.34 39.47Q228.35 39.49 228.38 39.49L230.61 39.49Q230.63 39.49 230.65 39.47Q230.67 39.45 230.66 39.44L229.51 34.98Q229.50 34.96 229.49 34.96Q229.48 34.96 229.46 34.98L228.33 39.44M238.62 42.10Q237.85 42.10 237.25 41.78Q236.65 41.47 236.33 40.90Q236 40.33 236 39.57L236 35.80Q236 34.65 236.72 33.97Q237.44 33.28 238.62 33.28Q239.80 33.28 240.52 33.96Q241.23 34.64 241.23 35.76L241.23 35.86Q241.23 35.92 241.19 35.96Q241.16 35.99 241.11 35.99L240.17 36.04Q240.05 36.04 240.05 35.92L240.05 35.73Q240.05 35.09 239.66 34.70Q239.26 34.31 238.62 34.31Q237.98 34.31 237.58 34.70Q237.18 35.09 237.18 35.73L237.18 39.65Q237.18 40.29 237.58 40.68Q237.98 41.08 238.62 41.08Q239.26 41.08 239.66 40.68Q240.05 40.29 240.05 39.65L240.05 39.48Q240.05 39.35 240.17 39.35L241.11 39.40Q241.23 39.40 241.23 39.53L241.23 39.61Q241.23 40.35 240.90 40.92Q240.58 41.48 239.99 41.79Q239.40 42.10 238.62 42.10M249.40 33.51Q249.40 33.38 249.53 33.38L250.46 33.38Q250.59 33.38 250.59 33.51L250.59 41.88Q250.59 42 250.46 42L249.53 42Q249.40 42 249.40 41.88L249.40 38.23Q249.40 38.18 249.36 38.18L246.67 38.18Q246.62 38.18 246.62 38.23L246.62 41.88Q246.62 42 246.50 42L245.56 42Q245.44 42 245.44 41.88L245.44 33.51Q245.44 33.38 245.56 33.38L246.50 33.38Q246.62 33.38 246.62 33.51L246.62 37.11Q246.62 37.16 246.67 37.16L249.36 37.16Q249.40 37.16 249.40 37.11L249.40 33.51M257.59 42.10Q256.82 42.10 256.22 41.77Q255.62 41.45 255.29 40.85Q254.97 40.25 254.97 39.46L254.97 33.51Q254.97 33.38 255.09 33.38L256.03 33.38Q256.15 33.38 256.15 33.51L256.15 39.54Q256.15 40.23 256.55 40.65Q256.95 41.08 257.59 41.08Q258.24 41.08 258.64 40.65Q259.04 40.23 259.04 39.54L259.04 33.51Q259.04 33.38 259.17 33.38L260.10 33.38Q260.22 33.38 260.22 33.51L260.22 39.46Q260.22 40.25 259.90 40.85Q259.57 41.45 258.98 41.77Q258.38 42.10 257.59 42.10M268.83 33.51Q268.83 33.38 268.95 33.38L269.89 33.38Q270.01 33.38 270.01 33.51L270.01 41.88Q270.01 42 269.89 42L268.90 42Q268.79 42 268.76 41.91L265.79 35.94Q265.76 35.92 265.75 35.92Q265.73 35.92 265.73 35.96L265.74 41.88Q265.74 42 265.62 42L264.68 42Q264.56 42 264.56 41.88L264.56 33.51Q264.56 33.38 264.68 33.38L265.67 33.38Q265.78 33.38 265.81 33.47L268.77 39.44Q268.79 39.46 268.81 39.46Q268.83 39.46 268.83 39.43L268.83 33.51M276.89 42.10Q275.72 42.10 275.01 41.42Q274.30 40.73 274.30 39.61L274.30 35.77Q274.30 34.65 275.01 33.97Q275.72 33.28 276.89 33.28Q277.67 33.28 278.26 33.59Q278.85 33.89 279.18 34.44Q279.50 35 279.50 35.70L279.50 36.03Q279.50 36.15 279.38 36.15L278.44 36.15Q278.32 36.15 278.32 36.03L278.32 35.70Q278.32 35.08 277.93 34.69Q277.54 34.31 276.89 34.31Q276.25 34.31 275.86 34.71Q275.46 35.11 275.46 35.75L275.46 39.64Q275.46 40.28 275.86 40.68Q276.26 41.08 276.92 41.08Q277.56 41.08 277.94 40.71Q278.32 40.34 278.32 39.71L278.32 38.57Q278.32 38.52 278.27 38.52L276.98 38.52Q276.86 38.52 276.86 38.39L276.86 37.63Q276.86 37.51 276.98 37.51L279.38 37.51Q279.50 37.51 279.50 37.63L279.50 39.55Q279.50 40.74 278.79 41.42Q278.09 42.10 276.89 42.10"/>
</svg>
